M48
;Layer_Color=9474304
;FILE_FORMAT=2:4
INCH,TZ
;TYPE=PLATED
T1F00S00C0.0098
T3F00S00C0.0354
;TYPE=NON_PLATED
T5F00S00C0.0390
%
T01
X8670Y-2250
X9180Y-2100
X9550Y-1870
X9540Y-1590
X9610Y-800
X9260Y-544
X9330Y700
X11230Y720
X11250Y430
X11006Y364
X11630Y-30
X11120Y-560
X10740Y-1280
X10500Y-1440
X10640Y-1920
X10210Y-1860
X9760Y-2260
X11290Y-2090
X11910Y-2160
X11680Y-1320
X12933Y-748
X13386Y-650
X13440Y-1240
X13169Y-128
Y128
X13780Y150
Y-150
X14150Y-200
X13350Y720
X7850Y585
X7459Y709
Y300
X6986
X6650
Y709
X6986
Y-300
Y-709
X7459
Y-300
X6514
Y-709
X6041Y-709
Y-300
Y200
X5650Y5
X5268Y-737
X4656Y-896
X4289Y-910
X4038Y-795
X3420Y-500
X3330Y-1400
X2700
X2180Y-1430
X2140Y-2210
X2420Y-2208
X2140Y-380
X2700Y-200
X3130Y870
X2130Y780
X4180Y495
X4170Y70
X4660Y870
X5968Y-1100
X5920Y-2020
X5632Y-1855
X6470Y-1880
X7390Y-1590
X7729Y-1324
X7660Y-2170
X7335Y1100
X7160Y1950
X6830Y1850
X6100Y1875
X6135Y2120
X5685Y2220
X5450Y2320
X4730
X5090Y1875
X5545Y1620
X5652Y975
X4970Y1120
X4780Y1307
X4290Y1080
X4000Y1240
X3870Y950
X3620
X3110Y1390
X2700Y1200
X2650Y2760
X2140Y2350
X4190Y1830
X4180Y1490
X8140Y1330
X8670Y1300
X8650Y1730
X9720
X9870Y1470
X10200Y1290
X10340Y1740
X10560Y1930
X11600Y1590
X11700Y1350
X12250Y1930
X13090Y1230
T03
X9250Y-3000
X10250
X11250
X8250
X7250
X6250
X5250
X4250
X3250
X2250
Y3000
X3250
X4250
X5250
X6250
X7250
X8250
X9250
X10250
X11250
T05
X12050Y-1500
X12850
X12450Y1500
M30
