<svg width="186" height="182" viewBox="0 0 186 182" fill="none" xmlns="http://www.w3.org/2000/svg">
<g filter="url(#filter0_d_4_160)">
<g filter="url(#filter1_d_4_160)">
<path d="M155.216 106.28L147.692 101.892C139.542 96.8762 139.542 84.9642 147.692 79.9486L155.216 75.56C161.485 71.7983 163.366 64.2749 159.604 58.6324L153.335 47.9743C149.573 41.7048 142.05 39.824 136.407 43.5857L128.884 47.9743C120.734 52.9899 110.076 46.7204 110.076 37.3162V28.5389C110.076 21.6425 104.433 16 97.5368 16H84.9978C78.1014 16 72.4589 21.6425 72.4589 28.5389V36.6892C72.4589 46.0935 61.8008 52.3629 53.6505 47.3473L46.1271 43.5857C39.8576 39.824 32.3343 42.3318 29.1995 47.9743L22.9301 58.6324C19.7953 64.9019 21.6762 72.4252 27.3187 76.1869L34.8421 80.5755C42.9924 84.9642 42.9924 97.5031 34.8421 101.892L27.3187 106.28C21.0492 110.042 19.1684 117.565 22.9301 123.208L29.1995 133.866C32.9612 140.135 40.4846 142.016 46.1271 138.255L53.6505 134.493C61.8008 129.477 72.4589 135.747 72.4589 145.151V153.928C72.4589 160.825 78.1014 166.467 84.9978 166.467H97.5368C104.433 166.467 110.076 160.825 110.076 153.928V145.778C110.076 136.374 120.734 130.104 128.884 135.12L136.407 139.509C142.677 143.27 150.2 140.762 153.335 135.12L159.604 124.462C162.739 117.565 160.858 110.042 155.216 106.28ZM91.2673 116.312C77.4744 116.312 66.1894 105.026 66.1894 91.2336C66.1894 77.4408 77.4744 66.1558 91.2673 66.1558C105.06 66.1558 116.345 77.4408 116.345 91.2336C116.345 105.026 105.06 116.312 91.2673 116.312Z" fill="black" fill-opacity="0.39"/>
</g>
</g>
<defs>
<filter id="filter0_d_4_160" x="0" y="0" width="206" height="190" filterUnits="userSpaceOnUse" color-interpolation-filters="sRGB">
<feFlood flood-opacity="0" result="BackgroundImageFix"/>
<feColorMatrix in="SourceAlpha" type="matrix" values="0 0 0 0 0 0 0 0 0 0 0 0 0 0 0 0 0 0 127 0" result="hardAlpha"/>
<feOffset dx="20" dy="4"/>
<feGaussianBlur stdDeviation="2"/>
<feComposite in2="hardAlpha" operator="out"/>
<feColorMatrix type="matrix" values="0 0 0 0 0 0 0 0 0 0 0 0 0 0 0 0 0 0 0.25 0"/>
<feBlend mode="normal" in2="BackgroundImageFix" result="effect1_dropShadow_4_160"/>
<feBlend mode="normal" in="SourceGraphic" in2="effect1_dropShadow_4_160" result="shape"/>
</filter>
<filter id="filter1_d_4_160" x="17" y="16" width="148.535" height="158.467" filterUnits="userSpaceOnUse" color-interpolation-filters="sRGB">
<feFlood flood-opacity="0" result="BackgroundImageFix"/>
<feColorMatrix in="SourceAlpha" type="matrix" values="0 0 0 0 0 0 0 0 0 0 0 0 0 0 0 0 0 0 127 0" result="hardAlpha"/>
<feOffset dy="4"/>
<feGaussianBlur stdDeviation="2"/>
<feComposite in2="hardAlpha" operator="out"/>
<feColorMatrix type="matrix" values="0 0 0 0 0 0 0 0 0 0 0 0 0 0 0 0 0 0 0.25 0"/>
<feBlend mode="normal" in2="BackgroundImageFix" result="effect1_dropShadow_4_160"/>
<feBlend mode="normal" in="SourceGraphic" in2="effect1_dropShadow_4_160" result="shape"/>
</filter>
</defs>
</svg>
