<svg width="86" height="210" viewBox="0 0 86 210" fill="none" xmlns="http://www.w3.org/2000/svg">
<g filter="url(#filter0_d_3_142)">
<path d="M31.7763 18.0834H53.27V8.22108C53.27 7.91591 53.0196 7.6658 52.7147 7.6658H32.3316C32.026 7.6658 31.7763 7.91548 31.7763 8.22108V18.0834ZM56.6029 24.7492H28.4434C26.6025 24.7492 25.1105 23.2568 25.1105 21.4163V8.22108C25.1105 4.23807 28.349 0.999973 32.3316 0.999973H52.7147C56.6962 0.999973 59.9358 4.23798 59.9358 8.22108V21.4163C59.9358 23.2569 58.4434 24.7492 56.6029 24.7492Z" fill="#BEC064" stroke="#BEC064" stroke-width="2"/>
<path d="M69.581 131.887L69.5806 131.888C68.6674 133.086 68.6674 134.756 69.5806 135.954C70.0932 136.627 70.8148 137.057 71.6026 137.216C72.6738 137.864 73.4766 139.24 73.4766 140.571V145.373C73.4766 146.74 72.6653 148.138 71.5951 148.786C70.8084 148.946 70.0864 149.376 69.5743 150.05C68.6622 151.247 68.6626 152.916 69.5753 154.113C70.0879 154.786 70.8096 155.216 71.5974 155.375C72.6698 156.024 73.4766 157.408 73.4766 158.751V191.701C73.4766 192.887 72.51 193.854 71.3233 193.854H13.8198C12.633 193.854 11.6658 192.887 11.6658 191.701V158.751C11.6658 157.409 12.473 156.024 13.5459 155.375C14.3332 155.216 15.0547 154.786 15.5671 154.114L69.581 131.887ZM69.581 131.887C70.0912 131.219 70.8092 130.79 71.5923 130.629C72.6466 129.978 73.4766 128.542 73.4766 127.194V122.391C73.4766 121.05 72.6698 119.665 71.5961 119.017C70.8093 118.857 70.0868 118.426 69.5754 117.754C68.6622 116.556 68.6622 114.886 69.5754 113.689C70.0878 113.016 70.8091 112.586 71.5956 112.427C72.6655 111.779 73.4766 110.381 73.4766 109.015V68.5593C73.4766 60.3217 70.2632 52.5562 64.422 46.6848C62.51 44.764 60.3639 43.104 58.043 41.7509L58.0421 41.7504C55.4539 40.2378 53.8517 37.434 53.8517 34.4301V27.7618C53.8517 26.6564 54.2798 25.6115 55.0518 24.823L55.0537 24.821C55.0606 24.8138 55.0769 24.7965 55.1005 24.7743C55.1091 24.7659 55.1177 24.7575 55.1263 24.7492H29.8116C30.7245 25.5804 31.2915 26.7718 31.2915 28.0923V34.4301C31.2915 37.4365 29.6736 40.2461 27.07 41.7684C17.568 47.3289 11.6658 57.5978 11.6658 68.5593V109.015C11.6658 110.38 12.477 111.777 13.5475 112.427C14.334 112.586 15.055 113.016 15.5671 113.688C16.4807 114.886 16.4813 116.555 15.5682 117.753C15.0563 118.425 14.3348 118.857 13.5463 119.017C12.4728 119.665 11.6658 121.05 11.6658 122.391V127.194C11.6658 128.542 12.4958 129.978 13.5499 130.629C14.3332 130.79 15.0509 131.219 15.5612 131.887L15.5615 131.888C16.4752 133.085 16.4757 134.756 15.5626 135.954C15.05 136.627 14.3282 137.057 13.5407 137.216C12.469 137.864 11.6658 139.241 11.6658 140.571V145.373C11.6658 146.74 12.4777 148.138 13.5481 148.786C14.3342 148.946 15.0554 149.375 15.5679 150.048C15.568 150.048 15.5681 150.049 15.5682 150.049L14.7726 150.655L69.581 131.887ZM23.7037 36.0152L23.7043 36.0149C24.276 35.6808 24.6257 35.0673 24.6257 34.4301V29.686C24.0007 29.3942 23.4262 28.9928 22.9337 28.4967C21.8269 27.3875 21.2126 25.9035 21.2126 24.3311C21.2126 20.8846 24.0145 18.0834 27.4604 18.0834H57.6823C61.1286 18.0834 63.93 20.8847 63.93 24.3311C63.93 26.7013 62.5309 28.7485 60.5175 29.6879V34.4301C60.5175 35.08 60.8628 35.6786 61.4031 35.9939C64.2224 37.6373 66.8275 39.653 69.1459 41.9833C76.2356 49.1076 80.1424 58.5486 80.1424 68.5593V109.015C80.1424 111.476 79.2541 113.855 77.7713 115.718C79.2525 117.574 80.1424 119.941 80.1424 122.391V127.194C80.1424 129.663 79.2545 132.047 77.7745 133.913C79.2545 135.765 80.1424 138.128 80.1424 140.571V145.373C80.1424 147.835 79.2532 150.214 77.7714 152.076C79.2537 153.933 80.1424 156.301 80.1424 158.751V191.701C80.1424 196.564 76.1877 200.52 71.3233 200.52H13.8198C8.95564 200.52 5 196.564 5 191.701V158.751C5 156.301 5.88978 153.933 7.37114 152.077C5.88927 150.214 5 147.835 5 145.373V140.571C5 138.128 5.88892 135.765 7.3684 133.913C5.88785 132.047 5 129.663 5 127.194V122.391C5 119.941 5.89 117.574 7.37135 115.718C5.88937 113.855 5 111.477 5 109.015V68.5593C5 61.8739 6.78738 55.2952 10.1698 49.536C13.4481 43.9532 18.1274 39.2785 23.7037 36.0152Z" fill="#BEC064" stroke="#BEC064" stroke-width="2"/>
<path d="M72.4382 119.055H12.7052C10.8645 119.055 9.37231 117.562 9.37231 115.722C9.37231 113.881 10.8645 112.389 12.7052 112.389H72.4382C74.2787 112.389 75.7711 113.881 75.7711 115.722C75.7711 117.562 74.2787 119.055 72.4382 119.055Z" fill="#BEC064" stroke="#BEC064" stroke-width="2"/>
<path d="M72.4432 137.254H12.6997C10.859 137.254 9.36682 135.762 9.36682 133.921C9.36682 132.081 10.859 130.588 12.6997 130.588H72.4432C74.2838 130.588 75.7762 132.081 75.7762 133.921C75.7762 135.762 74.2838 137.254 72.4432 137.254Z" fill="#BEC064" stroke="#BEC064" stroke-width="2"/>
<path d="M72.4382 155.413H12.7052C10.8645 155.413 9.37231 153.921 9.37231 152.08C9.37231 150.24 10.8645 148.747 12.7052 148.747H72.4382C74.2787 148.747 75.7711 150.24 75.7711 152.08C75.7711 153.921 74.2787 155.413 72.4382 155.413Z" fill="#BEC064" stroke="#BEC064" stroke-width="2"/>
<mask id="path-6-outside-1_3_142" maskUnits="userSpaceOnUse" x="4.00134" y="69.1121" width="78" height="17" fill="black">
<rect fill="white" x="4.00134" y="69.1121" width="78" height="17"/>
<path d="M76.8085 84.1121C70.3438 84.1121 66.987 81.6703 64.0242 79.5162C61.2921 77.5281 58.9319 75.8121 53.9848 75.8121C49.0365 75.8121 46.6764 77.5281 43.9443 79.5162C40.982 81.6703 37.6244 84.1121 31.1595 84.1121C24.6945 84.1121 21.337 81.6703 18.3746 79.5162C15.642 77.5281 13.2818 75.8121 8.33426 75.8121C7.04584 75.8121 6.00134 74.7674 6.00134 73.4792C6.00134 72.1909 7.04584 71.1462 8.33426 71.1462C14.7993 71.1462 18.1567 73.588 21.1191 75.7421C23.8518 77.7302 26.2119 79.4462 31.1595 79.4462C36.1069 79.4462 38.4671 77.7302 41.1997 75.7421C44.162 73.588 47.5201 71.1462 53.9848 71.1462C60.4496 71.1462 63.8064 73.588 66.7692 75.7421C69.5013 77.7302 71.8615 79.4462 76.8085 79.4462C78.0968 79.4462 79.1414 80.4909 79.1414 81.7791C79.1414 83.0674 78.0968 84.1121 76.8085 84.1121Z"/>
</mask>
<path d="M76.8085 84.1121C70.3438 84.1121 66.987 81.6703 64.0242 79.5162C61.2921 77.5281 58.9319 75.8121 53.9848 75.8121C49.0365 75.8121 46.6764 77.5281 43.9443 79.5162C40.982 81.6703 37.6244 84.1121 31.1595 84.1121C24.6945 84.1121 21.337 81.6703 18.3746 79.5162C15.642 77.5281 13.2818 75.8121 8.33426 75.8121C7.04584 75.8121 6.00134 74.7674 6.00134 73.4792C6.00134 72.1909 7.04584 71.1462 8.33426 71.1462C14.7993 71.1462 18.1567 73.588 21.1191 75.7421C23.8518 77.7302 26.2119 79.4462 31.1595 79.4462C36.1069 79.4462 38.4671 77.7302 41.1997 75.7421C44.162 73.588 47.5201 71.1462 53.9848 71.1462C60.4496 71.1462 63.8064 73.588 66.7692 75.7421C69.5013 77.7302 71.8615 79.4462 76.8085 79.4462C78.0968 79.4462 79.1414 80.4909 79.1414 81.7791C79.1414 83.0674 78.0968 84.1121 76.8085 84.1121Z" fill="#BEC064"/>
<path d="M64.0242 79.5162L62.8481 81.1339L62.8474 81.1334L64.0242 79.5162ZM43.9443 79.5162L45.1211 81.1334L45.1205 81.1338L43.9443 79.5162ZM18.3746 79.5162L17.1984 81.1338L17.1979 81.1335L18.3746 79.5162ZM21.1191 75.7421L22.2953 74.1245L22.2958 74.1248L21.1191 75.7421ZM41.1997 75.7421L40.023 74.1248L40.0235 74.1245L41.1997 75.7421ZM66.7692 75.7421L67.9453 74.1244L67.946 74.1249L66.7692 75.7421ZM76.8085 86.1121C69.6905 86.1121 65.9007 83.3533 62.8481 81.1339L65.2002 77.8986C68.0732 79.9873 70.997 82.1121 76.8085 82.1121V86.1121ZM62.8474 81.1334C61.4576 80.1221 60.3536 79.328 59.034 78.7511C57.7579 78.1933 56.2067 77.8121 53.9848 77.8121V73.8121C56.7101 73.8121 58.8125 74.2888 60.6362 75.086C62.4165 75.8642 63.8586 76.9222 65.201 77.8991L62.8474 81.1334ZM53.9848 77.8121C51.7623 77.8121 50.2108 78.1933 48.9344 78.7512C47.6148 79.328 46.5108 80.1221 45.1211 81.1334L42.7675 77.8991C44.1098 76.9222 45.552 75.8642 47.3325 75.086C49.1563 74.2888 51.2591 73.8121 53.9848 73.8121V77.8121ZM45.1205 81.1338C42.0681 83.3533 38.2776 86.1121 31.1595 86.1121V82.1121C36.9712 82.1121 39.8958 79.9872 42.768 77.8987L45.1205 81.1338ZM31.1595 86.1121C24.0413 86.1121 20.2509 83.3533 17.1984 81.1338L19.5508 77.8986C22.4232 79.9872 25.3477 82.1121 31.1595 82.1121V86.1121ZM17.1979 81.1335C15.8079 80.1221 14.7038 79.328 13.384 78.7512C12.1077 78.1933 10.5564 77.8121 8.33426 77.8121V73.8121C11.0597 73.8121 13.1623 74.2888 14.9861 75.086C16.7664 75.8642 18.2087 76.9222 19.5513 77.899L17.1979 81.1335ZM8.33426 77.8121C5.9412 77.8121 4.00134 75.8719 4.00134 73.4792H8.00134C8.00134 73.6629 8.15048 73.8121 8.33426 73.8121V77.8121ZM4.00134 73.4792C4.00134 71.0864 5.9412 69.1462 8.33426 69.1462V73.1462C8.15048 73.1462 8.00134 73.2954 8.00134 73.4792H4.00134ZM8.33426 69.1462C15.4525 69.1462 19.2429 71.905 22.2953 74.1245L19.943 77.3597C17.0706 75.2711 14.1461 73.1462 8.33426 73.1462V69.1462ZM22.2958 74.1248C23.6858 75.1362 24.79 75.9303 26.1097 76.5071C27.386 77.065 28.9373 77.4462 31.1595 77.4462V81.4462C28.434 81.4462 26.3315 80.9695 24.5077 80.1723C22.7273 79.3941 21.2851 78.3361 19.9425 77.3593L22.2958 74.1248ZM31.1595 77.4462C33.3816 77.4462 34.9328 77.065 36.2091 76.5071C37.5289 75.9303 38.633 75.1362 40.023 74.1248L42.3764 77.3593C41.0338 78.3361 39.5915 79.3941 37.8112 80.1723C35.9874 80.9695 33.8849 81.4462 31.1595 81.4462V77.4462ZM40.0235 74.1245C43.0759 71.9049 46.8669 69.1462 53.9848 69.1462V73.1462C48.1732 73.1462 45.2481 75.2711 42.3759 77.3596L40.0235 74.1245ZM53.9848 69.1462C61.1029 69.1462 64.8927 71.9051 67.9453 74.1244L65.5931 77.3597C62.7202 75.271 59.7963 73.1462 53.9848 73.1462V69.1462ZM67.946 74.1249C69.3357 75.1363 70.4398 75.9303 71.7593 76.5072C73.0355 77.065 74.5867 77.4462 76.8085 77.4462V81.4462C74.0833 81.4462 71.9809 80.9695 70.1572 80.1723C68.3769 79.3941 66.9348 78.3361 65.5924 77.3592L67.946 74.1249ZM76.8085 77.4462C79.2014 77.4462 81.1414 79.3863 81.1414 81.7791H77.1414C77.1414 81.5954 76.9922 81.4462 76.8085 81.4462V77.4462ZM81.1414 81.7791C81.1414 84.172 79.2014 86.1121 76.8085 86.1121V82.1121C76.9922 82.1121 77.1414 81.9629 77.1414 81.7791H81.1414Z" fill="#BEC064" mask="url(#path-6-outside-1_3_142)"/>
</g>
<defs>
<filter id="filter0_d_3_142" x="0" y="-3.05176e-05" width="85.1425" height="209.52" filterUnits="userSpaceOnUse" color-interpolation-filters="sRGB">
<feFlood flood-opacity="0" result="BackgroundImageFix"/>
<feColorMatrix in="SourceAlpha" type="matrix" values="0 0 0 0 0 0 0 0 0 0 0 0 0 0 0 0 0 0 127 0" result="hardAlpha"/>
<feOffset dy="4"/>
<feGaussianBlur stdDeviation="2"/>
<feComposite in2="hardAlpha" operator="out"/>
<feColorMatrix type="matrix" values="0 0 0 0 0 0 0 0 0 0 0 0 0 0 0 0 0 0 0.25 0"/>
<feBlend mode="normal" in2="BackgroundImageFix" result="effect1_dropShadow_3_142"/>
<feBlend mode="normal" in="SourceGraphic" in2="effect1_dropShadow_3_142" result="shape"/>
</filter>
</defs>
</svg>
