<svg width="146" height="182" viewBox="0 0 146 182" fill="none" xmlns="http://www.w3.org/2000/svg">
<path d="M49 62L44 162.5L38.5 173L117 170.5L130 41L49 62Z" fill="#16B9ED" stroke="#16B9ED"/>
<path d="M23.8261 154.643L10.1047 11.0952C10.0486 10.508 10.5103 10 11.1001 10H134.88C135.477 10 135.941 10.5197 135.874 11.1128L132.497 40.8571M23.8261 154.643L25.4202 171.096C25.4698 171.609 25.9006 172 26.4155 172H115.729C116.235 172 116.661 171.622 116.722 171.12L132.497 40.8571M23.8261 154.643H43.8923C44.4446 154.643 44.8923 154.195 44.8923 153.643V60.788C44.8923 60.3952 45.1072 60.0453 45.4657 59.8849C62.8537 52.1072 103.653 37.8055 132.497 40.8571" stroke="#16B9ED" stroke-width="20"/>
</svg>
