G04*
G04 #@! TF.GenerationSoftware,Altium Limited,Altium Designer,20.1.14 (287)*
G04*
G04 Layer_Color=8421504*
%FSLAX24Y24*%
%MOIN*%
G70*
G04*
G04 #@! TF.SameCoordinates,EC6BA951-EC3A-497E-BF03-96D7CE287269*
G04*
G04*
G04 #@! TF.FilePolarity,Positive*
G04*
G01*
G75*
%ADD16R,0.0118X0.0106*%
%ADD17R,0.0413X0.0551*%
%ADD18R,0.0236X0.0335*%
%ADD19R,0.0295X0.0315*%
%ADD20R,0.0106X0.0118*%
%ADD21R,0.0315X0.0295*%
%ADD22R,0.0236X0.0197*%
%ADD23C,0.0394*%
%ADD24R,0.0551X0.0295*%
%ADD25R,0.0374X0.0335*%
%ADD26R,0.0256X0.0197*%
%ADD27R,0.0197X0.0236*%
%ADD28R,0.0300X0.0320*%
%ADD29R,0.0394X0.0335*%
%ADD30R,0.0197X0.0157*%
%ADD31C,0.0118*%
%ADD32R,0.1902X0.1902*%
%ADD33R,0.0256X0.0413*%
D16*
X11069Y-348D02*
D03*
Y-124D02*
D03*
X4082Y-1802D02*
D03*
Y-1578D02*
D03*
X5342Y-1578D02*
D03*
Y-1802D02*
D03*
X4958Y-614D02*
D03*
Y-390D02*
D03*
X4300Y-642D02*
D03*
Y-418D02*
D03*
X5110Y228D02*
D03*
Y452D02*
D03*
X9610Y-352D02*
D03*
Y-576D02*
D03*
X2850Y-1912D02*
D03*
Y-1688D02*
D03*
X5320Y1867D02*
D03*
Y1643D02*
D03*
X2170Y-1688D02*
D03*
Y-1912D02*
D03*
D17*
X2545Y421D02*
D03*
X3115D02*
D03*
Y1839D02*
D03*
X2545D02*
D03*
D18*
X12374Y-404D02*
D03*
Y404D02*
D03*
X11626D02*
D03*
D19*
X7416Y-1955D02*
D03*
X7947D02*
D03*
D20*
X10398Y787D02*
D03*
X10622D02*
D03*
X10398Y1120D02*
D03*
X10622D02*
D03*
X10398Y453D02*
D03*
X10622D02*
D03*
X10398Y120D02*
D03*
X10622D02*
D03*
X7738Y-1620D02*
D03*
X7962D02*
D03*
X8718Y-514D02*
D03*
X8942D02*
D03*
X6738Y1626D02*
D03*
X6962D02*
D03*
X5778D02*
D03*
X6002D02*
D03*
X5093Y-896D02*
D03*
X4868D02*
D03*
X5854Y-1615D02*
D03*
X5629D02*
D03*
X6299D02*
D03*
X6524D02*
D03*
X10192Y-1330D02*
D03*
X9968D02*
D03*
X11498Y-1070D02*
D03*
X11722D02*
D03*
X11058Y-840D02*
D03*
X11282D02*
D03*
X11428Y720D02*
D03*
X11652D02*
D03*
X11498Y-840D02*
D03*
X11722D02*
D03*
X12218Y-2170D02*
D03*
X12442D02*
D03*
X2622Y-1920D02*
D03*
X2398D02*
D03*
X5638Y1880D02*
D03*
X5862D02*
D03*
X4509Y-303D02*
D03*
X4734D02*
D03*
D21*
X8980Y1050D02*
D03*
Y1582D02*
D03*
X9880Y650D02*
D03*
Y1182D02*
D03*
X9190Y-984D02*
D03*
Y-1516D02*
D03*
X8730D02*
D03*
Y-984D02*
D03*
X9430Y1532D02*
D03*
Y1000D02*
D03*
D22*
X11353Y1020D02*
D03*
X11747D02*
D03*
D23*
X2820Y-850D02*
D03*
D24*
X10100Y-1025D02*
D03*
Y-455D02*
D03*
D25*
X4997Y-1544D02*
D03*
Y-1996D02*
D03*
X4426D02*
D03*
Y-1544D02*
D03*
D26*
X8757Y-1914D02*
D03*
X8383D02*
D03*
D27*
X8400Y1707D02*
D03*
Y1313D02*
D03*
D28*
X11375Y-1600D02*
D03*
X10825D02*
D03*
D29*
X11705Y-404D02*
D03*
D30*
X11356Y1462D02*
D03*
X10844D02*
D03*
Y1738D02*
D03*
X11356D02*
D03*
D31*
X5864Y-1280D02*
D03*
X7242D02*
D03*
X7045D02*
D03*
X6848D02*
D03*
X6652D02*
D03*
X6455D02*
D03*
X6258D02*
D03*
X6061D02*
D03*
X5667D02*
D03*
X8030Y-1083D02*
D03*
X7734D02*
D03*
X7537D02*
D03*
X7341D02*
D03*
X7144D02*
D03*
X6947D02*
D03*
X6750D02*
D03*
X6553D02*
D03*
X6356D02*
D03*
X6159D02*
D03*
X5470D02*
D03*
X5667Y-787D02*
D03*
X8030Y-886D02*
D03*
X7833Y-787D02*
D03*
X5470Y-689D02*
D03*
X7833Y-591D02*
D03*
X5667D02*
D03*
X8030Y-492D02*
D03*
X7833Y-394D02*
D03*
X5667D02*
D03*
X8030Y-295D02*
D03*
X5470D02*
D03*
X7833Y-197D02*
D03*
X8030Y-98D02*
D03*
X5470D02*
D03*
X7833Y0D02*
D03*
X8030Y98D02*
D03*
X5470D02*
D03*
X7833Y197D02*
D03*
X5667D02*
D03*
X8030Y295D02*
D03*
X5470D02*
D03*
X7833Y394D02*
D03*
X5667D02*
D03*
X8030Y492D02*
D03*
X5470D02*
D03*
X5667Y591D02*
D03*
X8030Y689D02*
D03*
X5470D02*
D03*
X7833Y787D02*
D03*
X5667D02*
D03*
X5470Y886D02*
D03*
X7833Y984D02*
D03*
X7537Y1083D02*
D03*
X7144D02*
D03*
X6947D02*
D03*
X6750D02*
D03*
X6553D02*
D03*
X6356D02*
D03*
X6159D02*
D03*
X5963D02*
D03*
X5470D02*
D03*
X7833Y1280D02*
D03*
X7636D02*
D03*
X7439D02*
D03*
X7242D02*
D03*
X7045D02*
D03*
X6848D02*
D03*
X6652D02*
D03*
X6455D02*
D03*
X6258D02*
D03*
X6061D02*
D03*
X5864D02*
D03*
X5667D02*
D03*
D32*
X6750Y0D02*
D03*
D33*
X4603Y1947D02*
D03*
Y313D02*
D03*
X3757Y1947D02*
D03*
Y313D02*
D03*
M02*
