G04*
G04 #@! TF.GenerationSoftware,Altium Limited,Altium Designer,20.1.14 (287)*
G04*
G04 Layer_Color=32896*
%FSLAX24Y24*%
%MOIN*%
G70*
G04*
G04 #@! TF.SameCoordinates,EC6BA951-EC3A-497E-BF03-96D7CE287269*
G04*
G04*
G04 #@! TF.FilePolarity,Positive*
G04*
G01*
G75*
%ADD12C,0.0079*%
%ADD13C,0.0060*%
%ADD14C,0.0050*%
%ADD15C,0.0059*%
%ADD64C,0.0080*%
%ADD92C,0.0118*%
G36*
X538Y2841D02*
X559Y2839D01*
X579Y2837D01*
X597Y2834D01*
X614Y2830D01*
X630Y2826D01*
X644Y2821D01*
X656Y2816D01*
X668Y2812D01*
X677Y2807D01*
X685Y2803D01*
X692Y2800D01*
X698Y2796D01*
X701Y2794D01*
X703Y2792D01*
X704Y2792D01*
X714Y2783D01*
X723Y2774D01*
X730Y2765D01*
X737Y2755D01*
X742Y2745D01*
X747Y2736D01*
X750Y2726D01*
X753Y2716D01*
X755Y2708D01*
X757Y2700D01*
X759Y2692D01*
X759Y2686D01*
X760Y2681D01*
X760Y2677D01*
Y2673D01*
X760Y2661D01*
X758Y2649D01*
X755Y2638D01*
X752Y2627D01*
X748Y2618D01*
X743Y2608D01*
X738Y2600D01*
X733Y2592D01*
X728Y2585D01*
X723Y2579D01*
X718Y2574D01*
X714Y2570D01*
X711Y2567D01*
X708Y2564D01*
X706Y2563D01*
X705Y2562D01*
X693Y2553D01*
X680Y2546D01*
X665Y2539D01*
X651Y2533D01*
X637Y2528D01*
X622Y2524D01*
X608Y2521D01*
X595Y2518D01*
X582Y2516D01*
X570Y2514D01*
X560Y2514D01*
X550Y2513D01*
X547Y2512D01*
X543D01*
X540Y2512D01*
X537D01*
X535D01*
X534D01*
X533D01*
X532D01*
X512Y2512D01*
X494Y2514D01*
X476Y2517D01*
X460Y2520D01*
X444Y2523D01*
X430Y2528D01*
X417Y2532D01*
X406Y2537D01*
X396Y2542D01*
X387Y2546D01*
X380Y2550D01*
X374Y2554D01*
X368Y2557D01*
X365Y2560D01*
X363Y2561D01*
X362Y2562D01*
X353Y2570D01*
X345Y2579D01*
X338Y2589D01*
X332Y2599D01*
X327Y2609D01*
X323Y2619D01*
X319Y2629D01*
X316Y2638D01*
X314Y2647D01*
X313Y2656D01*
X312Y2663D01*
X311Y2670D01*
X310Y2675D01*
X310Y2679D01*
Y2683D01*
X310Y2693D01*
X311Y2703D01*
X313Y2712D01*
X315Y2722D01*
X317Y2730D01*
X320Y2738D01*
X323Y2745D01*
X326Y2751D01*
X328Y2758D01*
X331Y2763D01*
X334Y2767D01*
X336Y2771D01*
X338Y2774D01*
X340Y2776D01*
X341Y2778D01*
X341Y2778D01*
X347Y2785D01*
X354Y2792D01*
X362Y2798D01*
X370Y2804D01*
X378Y2809D01*
X385Y2814D01*
X393Y2819D01*
X401Y2822D01*
X409Y2826D01*
X415Y2829D01*
X422Y2831D01*
X427Y2833D01*
X432Y2834D01*
X435Y2836D01*
X437Y2837D01*
X438D01*
X457Y2744D01*
X446Y2741D01*
X436Y2737D01*
X428Y2733D01*
X421Y2728D01*
X415Y2723D01*
X410Y2718D01*
X406Y2713D01*
X403Y2708D01*
X400Y2703D01*
X398Y2699D01*
X397Y2695D01*
X396Y2691D01*
X396Y2688D01*
X395Y2686D01*
Y2684D01*
X396Y2678D01*
X396Y2672D01*
X398Y2667D01*
X399Y2662D01*
X404Y2653D01*
X409Y2645D01*
X414Y2639D01*
X416Y2636D01*
X418Y2634D01*
X420Y2632D01*
X421Y2631D01*
X422Y2630D01*
X423Y2630D01*
X428Y2626D01*
X434Y2622D01*
X441Y2620D01*
X447Y2617D01*
X460Y2613D01*
X473Y2611D01*
X479Y2610D01*
X485Y2609D01*
X489Y2608D01*
X494Y2608D01*
X497Y2607D01*
X500D01*
X502D01*
X502D01*
Y2841D01*
X515D01*
X538Y2841D01*
D02*
G37*
G36*
X914Y2350D02*
X320D01*
Y2443D01*
X914D01*
Y2350D01*
D02*
G37*
G36*
X750Y2170D02*
X690D01*
X702Y2162D01*
X713Y2154D01*
X722Y2145D01*
X729Y2138D01*
X735Y2131D01*
X737Y2129D01*
X739Y2126D01*
X741Y2124D01*
X741Y2123D01*
X742Y2122D01*
Y2121D01*
X748Y2111D01*
X753Y2101D01*
X756Y2091D01*
X758Y2082D01*
X759Y2074D01*
X760Y2070D01*
Y2067D01*
X760Y2065D01*
Y2062D01*
X760Y2050D01*
X758Y2039D01*
X755Y2029D01*
X752Y2019D01*
X747Y2010D01*
X743Y2001D01*
X737Y1993D01*
X732Y1986D01*
X727Y1979D01*
X722Y1974D01*
X717Y1968D01*
X713Y1964D01*
X709Y1961D01*
X707Y1959D01*
X705Y1957D01*
X704Y1956D01*
X693Y1949D01*
X681Y1942D01*
X668Y1936D01*
X655Y1931D01*
X640Y1927D01*
X627Y1923D01*
X613Y1921D01*
X600Y1918D01*
X587Y1916D01*
X575Y1915D01*
X565Y1914D01*
X555Y1914D01*
X551Y1913D01*
X548D01*
X545Y1913D01*
X542D01*
X540D01*
X539D01*
X538D01*
X537D01*
X518Y1913D01*
X500Y1915D01*
X484Y1917D01*
X468Y1920D01*
X453Y1923D01*
X440Y1927D01*
X427Y1932D01*
X416Y1936D01*
X406Y1940D01*
X397Y1945D01*
X390Y1949D01*
X384Y1952D01*
X379Y1955D01*
X375Y1957D01*
X374Y1959D01*
X373Y1959D01*
X363Y1967D01*
X355Y1975D01*
X348Y1983D01*
X342Y1992D01*
X337Y2000D01*
X333Y2008D01*
X329Y2016D01*
X327Y2024D01*
X324Y2031D01*
X323Y2037D01*
X322Y2043D01*
X321Y2048D01*
X320Y2052D01*
X320Y2055D01*
Y2058D01*
X321Y2070D01*
X323Y2081D01*
X325Y2090D01*
X329Y2099D01*
X332Y2106D01*
X333Y2109D01*
X334Y2112D01*
X335Y2114D01*
X336Y2115D01*
X337Y2116D01*
Y2116D01*
X345Y2126D01*
X353Y2135D01*
X361Y2143D01*
X370Y2150D01*
X378Y2156D01*
X381Y2158D01*
X384Y2160D01*
X386Y2161D01*
X388Y2163D01*
X389Y2163D01*
X389Y2164D01*
X327D01*
X319D01*
X312Y2163D01*
X305Y2163D01*
X299Y2162D01*
X294Y2162D01*
X289Y2161D01*
X284Y2161D01*
X281Y2160D01*
X277Y2159D01*
X274Y2158D01*
X272Y2158D01*
X270Y2157D01*
X269Y2157D01*
X268Y2157D01*
X267Y2156D01*
X261Y2153D01*
X256Y2150D01*
X252Y2147D01*
X248Y2143D01*
X246Y2140D01*
X244Y2138D01*
X243Y2136D01*
X243Y2136D01*
X239Y2128D01*
X237Y2120D01*
X235Y2111D01*
X234Y2103D01*
X233Y2096D01*
Y2094D01*
X232Y2091D01*
Y2086D01*
X233Y2077D01*
X234Y2068D01*
X235Y2062D01*
X237Y2057D01*
X239Y2052D01*
X241Y2049D01*
X242Y2047D01*
X242Y2047D01*
X247Y2043D01*
X252Y2039D01*
X257Y2037D01*
X263Y2035D01*
X268Y2034D01*
X272Y2033D01*
X275Y2032D01*
X275D01*
X276D01*
X291Y1925D01*
X277D01*
X263Y1926D01*
X250Y1928D01*
X237Y1931D01*
X232Y1933D01*
X227Y1934D01*
X223Y1936D01*
X219Y1938D01*
X216Y1939D01*
X212Y1941D01*
X210Y1941D01*
X208Y1942D01*
X208Y1943D01*
X207D01*
X196Y1951D01*
X187Y1959D01*
X179Y1968D01*
X172Y1977D01*
X168Y1985D01*
X165Y1988D01*
X164Y1991D01*
X163Y1993D01*
X162Y1995D01*
X161Y1996D01*
Y1996D01*
X158Y2003D01*
X156Y2010D01*
X152Y2026D01*
X149Y2041D01*
X147Y2056D01*
X147Y2063D01*
X146Y2069D01*
X146Y2075D01*
Y2080D01*
X145Y2084D01*
Y2089D01*
X146Y2101D01*
X146Y2112D01*
X147Y2122D01*
X149Y2131D01*
X150Y2140D01*
X152Y2148D01*
X154Y2155D01*
X156Y2162D01*
X158Y2168D01*
X160Y2173D01*
X162Y2177D01*
X163Y2181D01*
X165Y2184D01*
X166Y2186D01*
X166Y2187D01*
X167Y2187D01*
X171Y2194D01*
X176Y2200D01*
X186Y2211D01*
X196Y2220D01*
X206Y2227D01*
X216Y2233D01*
X219Y2235D01*
X223Y2237D01*
X226Y2238D01*
X228Y2239D01*
X230Y2240D01*
X230D01*
X238Y2243D01*
X248Y2246D01*
X258Y2248D01*
X269Y2250D01*
X291Y2253D01*
X302Y2254D01*
X313Y2255D01*
X323Y2256D01*
X333Y2256D01*
X341Y2257D01*
X349D01*
X355Y2257D01*
X360D01*
X362D01*
X363D01*
X363D01*
X364D01*
X750D01*
Y2170D01*
D02*
G37*
G36*
X610Y1839D02*
X620Y1838D01*
X629Y1837D01*
X638Y1837D01*
X646Y1836D01*
X653Y1835D01*
X659Y1834D01*
X665Y1833D01*
X670Y1832D01*
X674Y1831D01*
X678Y1830D01*
X680Y1829D01*
X682Y1829D01*
X683Y1828D01*
X684D01*
X696Y1823D01*
X707Y1818D01*
X716Y1811D01*
X724Y1805D01*
X730Y1799D01*
X733Y1796D01*
X735Y1794D01*
X737Y1792D01*
X738Y1790D01*
X738Y1790D01*
X739Y1789D01*
X743Y1784D01*
X746Y1778D01*
X749Y1772D01*
X751Y1767D01*
X755Y1755D01*
X758Y1744D01*
X759Y1739D01*
X759Y1735D01*
X760Y1731D01*
Y1727D01*
X760Y1724D01*
Y1720D01*
X759Y1707D01*
X757Y1695D01*
X755Y1684D01*
X751Y1675D01*
X749Y1671D01*
X748Y1667D01*
X746Y1664D01*
X745Y1661D01*
X744Y1659D01*
X743Y1657D01*
X742Y1656D01*
X742Y1656D01*
X734Y1645D01*
X726Y1636D01*
X717Y1627D01*
X708Y1619D01*
X700Y1613D01*
X697Y1610D01*
X694Y1608D01*
X691Y1606D01*
X689Y1605D01*
X688Y1604D01*
X687Y1604D01*
X750D01*
Y1517D01*
X320D01*
Y1611D01*
X515D01*
X528D01*
X540Y1611D01*
X552Y1612D01*
X562Y1612D01*
X571Y1613D01*
X579Y1613D01*
X587Y1614D01*
X593Y1615D01*
X599Y1615D01*
X604Y1616D01*
X608Y1617D01*
X611Y1617D01*
X613Y1618D01*
X615Y1618D01*
X615Y1618D01*
X616D01*
X626Y1622D01*
X634Y1626D01*
X641Y1630D01*
X647Y1635D01*
X652Y1639D01*
X655Y1642D01*
X657Y1644D01*
X658Y1645D01*
X663Y1653D01*
X667Y1660D01*
X669Y1667D01*
X672Y1674D01*
X673Y1679D01*
X673Y1684D01*
X673Y1686D01*
Y1688D01*
X673Y1694D01*
X672Y1700D01*
X669Y1706D01*
X668Y1711D01*
X665Y1715D01*
X663Y1718D01*
X662Y1720D01*
X662Y1720D01*
X657Y1725D01*
X651Y1729D01*
X646Y1733D01*
X640Y1736D01*
X635Y1737D01*
X631Y1739D01*
X629Y1740D01*
X628Y1740D01*
X628D01*
X623Y1741D01*
X618Y1742D01*
X611Y1743D01*
X605Y1743D01*
X590Y1744D01*
X575Y1745D01*
X568Y1745D01*
X561D01*
X556Y1746D01*
X550D01*
X546D01*
X543D01*
X540D01*
X540D01*
X320D01*
Y1839D01*
X587D01*
X599D01*
X610Y1839D01*
D02*
G37*
G36*
X554Y1445D02*
X570Y1443D01*
X585Y1441D01*
X599Y1438D01*
X613Y1434D01*
X626Y1430D01*
X638Y1425D01*
X649Y1421D01*
X658Y1416D01*
X667Y1412D01*
X675Y1408D01*
X681Y1404D01*
X687Y1401D01*
X690Y1398D01*
X692Y1397D01*
X693Y1396D01*
X705Y1387D01*
X716Y1376D01*
X724Y1366D01*
X732Y1355D01*
X738Y1344D01*
X744Y1333D01*
X748Y1322D01*
X752Y1311D01*
X755Y1301D01*
X757Y1292D01*
X758Y1283D01*
X759Y1276D01*
X760Y1271D01*
X760Y1266D01*
Y1262D01*
X760Y1253D01*
X759Y1244D01*
X758Y1235D01*
X756Y1227D01*
X754Y1219D01*
X752Y1211D01*
X750Y1204D01*
X747Y1198D01*
X745Y1192D01*
X742Y1187D01*
X740Y1182D01*
X738Y1178D01*
X737Y1175D01*
X735Y1173D01*
X734Y1171D01*
X734Y1171D01*
X729Y1164D01*
X723Y1157D01*
X711Y1144D01*
X705Y1138D01*
X698Y1132D01*
X692Y1128D01*
X685Y1123D01*
X680Y1119D01*
X674Y1116D01*
X669Y1113D01*
X665Y1110D01*
X661Y1108D01*
X658Y1107D01*
X657Y1106D01*
X656Y1106D01*
X647Y1101D01*
X637Y1097D01*
X626Y1094D01*
X616Y1091D01*
X607Y1089D01*
X597Y1087D01*
X588Y1085D01*
X579Y1084D01*
X571Y1083D01*
X564Y1082D01*
X557Y1081D01*
X552Y1081D01*
X547Y1081D01*
X543D01*
X542D01*
X541D01*
X521Y1081D01*
X502Y1083D01*
X484Y1085D01*
X467Y1089D01*
X452Y1092D01*
X438Y1097D01*
X425Y1102D01*
X414Y1107D01*
X403Y1111D01*
X395Y1116D01*
X387Y1121D01*
X381Y1125D01*
X376Y1128D01*
X372Y1130D01*
X370Y1132D01*
X370Y1132D01*
X359Y1143D01*
X350Y1153D01*
X342Y1164D01*
X335Y1175D01*
X329Y1186D01*
X324Y1197D01*
X320Y1207D01*
X317Y1217D01*
X315Y1226D01*
X313Y1235D01*
X312Y1243D01*
X311Y1250D01*
X310Y1255D01*
X310Y1259D01*
Y1263D01*
X310Y1272D01*
X311Y1281D01*
X313Y1290D01*
X314Y1297D01*
X316Y1305D01*
X318Y1313D01*
X321Y1320D01*
X324Y1326D01*
X326Y1332D01*
X328Y1337D01*
X331Y1342D01*
X333Y1346D01*
X334Y1349D01*
X335Y1351D01*
X336Y1352D01*
X337Y1353D01*
X342Y1360D01*
X348Y1368D01*
X360Y1380D01*
X367Y1387D01*
X374Y1392D01*
X381Y1397D01*
X387Y1402D01*
X393Y1406D01*
X399Y1409D01*
X404Y1412D01*
X408Y1415D01*
X412Y1417D01*
X415Y1418D01*
X417Y1419D01*
X417Y1420D01*
X427Y1424D01*
X438Y1428D01*
X448Y1431D01*
X458Y1434D01*
X469Y1437D01*
X478Y1439D01*
X488Y1441D01*
X497Y1442D01*
X506Y1443D01*
X514Y1444D01*
X520Y1444D01*
X526Y1445D01*
X531Y1445D01*
X534D01*
X536D01*
X537D01*
X554Y1445D01*
D02*
G37*
G36*
X641Y1019D02*
X656Y1018D01*
X669Y1017D01*
X682Y1016D01*
X694Y1014D01*
X705Y1013D01*
X714Y1011D01*
X723Y1009D01*
X731Y1008D01*
X738Y1007D01*
X744Y1006D01*
X748Y1005D01*
X751Y1004D01*
X753Y1003D01*
X754D01*
X764Y1000D01*
X774Y996D01*
X784Y992D01*
X793Y989D01*
X801Y985D01*
X809Y981D01*
X816Y977D01*
X822Y974D01*
X828Y970D01*
X833Y967D01*
X837Y964D01*
X841Y962D01*
X844Y959D01*
X845Y958D01*
X847Y957D01*
X847Y957D01*
X854Y952D01*
X860Y946D01*
X865Y940D01*
X871Y935D01*
X875Y929D01*
X879Y924D01*
X886Y914D01*
X889Y910D01*
X892Y906D01*
X894Y902D01*
X896Y899D01*
X897Y897D01*
X898Y895D01*
X899Y894D01*
Y893D01*
X901Y887D01*
X904Y879D01*
X906Y871D01*
X907Y863D01*
X910Y846D01*
X912Y829D01*
X913Y822D01*
X913Y814D01*
X914Y808D01*
Y802D01*
X914Y797D01*
Y612D01*
X320D01*
Y807D01*
X321Y817D01*
X322Y827D01*
X323Y837D01*
X324Y845D01*
X325Y853D01*
X327Y860D01*
X328Y867D01*
X330Y873D01*
X331Y878D01*
X333Y883D01*
X334Y886D01*
X335Y889D01*
X336Y891D01*
X337Y893D01*
Y893D01*
X344Y907D01*
X352Y919D01*
X360Y930D01*
X364Y935D01*
X368Y940D01*
X371Y944D01*
X375Y947D01*
X378Y950D01*
X381Y953D01*
X383Y955D01*
X385Y956D01*
X386Y957D01*
X386Y958D01*
X393Y963D01*
X400Y967D01*
X414Y976D01*
X430Y984D01*
X444Y990D01*
X451Y993D01*
X457Y995D01*
X463Y997D01*
X468Y999D01*
X471Y1000D01*
X474Y1001D01*
X476Y1002D01*
X477D01*
X488Y1005D01*
X499Y1008D01*
X522Y1012D01*
X544Y1015D01*
X555Y1017D01*
X565Y1017D01*
X575Y1018D01*
X583Y1019D01*
X591Y1019D01*
X598D01*
X603Y1020D01*
X607D01*
X610D01*
X611D01*
X626D01*
X641Y1019D01*
D02*
G37*
G36*
X592Y358D02*
X478D01*
Y541D01*
X592D01*
Y358D01*
D02*
G37*
G36*
X643Y303D02*
X658Y302D01*
X671Y301D01*
X684Y300D01*
X697Y299D01*
X709Y298D01*
X721Y296D01*
X732Y295D01*
X742Y293D01*
X752Y291D01*
X761Y289D01*
X770Y287D01*
X779Y285D01*
X786Y283D01*
X794Y281D01*
X801Y279D01*
X807Y277D01*
X813Y275D01*
X818Y273D01*
X823Y271D01*
X828Y269D01*
X832Y268D01*
X835Y266D01*
X838Y265D01*
X841Y263D01*
X845Y261D01*
X848Y260D01*
X849Y259D01*
X860Y251D01*
X871Y242D01*
X880Y232D01*
X888Y223D01*
X894Y213D01*
X899Y204D01*
X904Y194D01*
X908Y185D01*
X910Y177D01*
X913Y169D01*
X914Y162D01*
X915Y157D01*
X916Y152D01*
X916Y148D01*
Y145D01*
X915Y132D01*
X913Y120D01*
X910Y108D01*
X906Y97D01*
X900Y87D01*
X895Y77D01*
X888Y69D01*
X882Y61D01*
X876Y54D01*
X870Y48D01*
X864Y42D01*
X859Y38D01*
X855Y34D01*
X852Y32D01*
X849Y31D01*
X849Y30D01*
X842Y26D01*
X835Y23D01*
X827Y19D01*
X819Y16D01*
X802Y10D01*
X783Y5D01*
X764Y1D01*
X745Y-3D01*
X725Y-5D01*
X706Y-8D01*
X687Y-10D01*
X670Y-11D01*
X662Y-12D01*
X655Y-12D01*
X647Y-12D01*
X641D01*
X635Y-13D01*
X630D01*
X625Y-13D01*
X621D01*
X618D01*
X615D01*
X614D01*
X614D01*
X598D01*
X583Y-13D01*
X568Y-12D01*
X554Y-12D01*
X541Y-10D01*
X529Y-9D01*
X516Y-8D01*
X505Y-6D01*
X494Y-5D01*
X483Y-3D01*
X473Y-2D01*
X464Y0D01*
X455Y2D01*
X446Y4D01*
X439Y6D01*
X432Y9D01*
X424Y10D01*
X418Y13D01*
X412Y14D01*
X407Y16D01*
X402Y18D01*
X397Y20D01*
X393Y22D01*
X390Y23D01*
X387Y25D01*
X384Y26D01*
X380Y28D01*
X378Y30D01*
X377Y30D01*
X365Y38D01*
X355Y48D01*
X346Y57D01*
X338Y67D01*
X331Y76D01*
X326Y86D01*
X322Y95D01*
X318Y104D01*
X316Y112D01*
X313Y120D01*
X312Y127D01*
X311Y133D01*
X310Y138D01*
X310Y142D01*
Y145D01*
X311Y157D01*
X313Y170D01*
X316Y182D01*
X320Y193D01*
X326Y203D01*
X331Y212D01*
X337Y221D01*
X344Y229D01*
X350Y236D01*
X356Y242D01*
X362Y247D01*
X367Y251D01*
X371Y255D01*
X374Y257D01*
X376Y259D01*
X377Y259D01*
X384Y263D01*
X391Y267D01*
X399Y271D01*
X406Y274D01*
X424Y279D01*
X442Y285D01*
X462Y289D01*
X482Y293D01*
X501Y295D01*
X520Y298D01*
X539Y300D01*
X556Y301D01*
X564Y301D01*
X572Y302D01*
X579Y302D01*
X586D01*
X591Y303D01*
X597D01*
X601Y303D01*
X605D01*
X608D01*
X611D01*
X612D01*
X613D01*
X628D01*
X643Y303D01*
D02*
G37*
G36*
X540Y-119D02*
X916D01*
Y-198D01*
X539Y-408D01*
X439D01*
Y-209D01*
X320D01*
Y-119D01*
X439D01*
Y-58D01*
X540D01*
Y-119D01*
D02*
G37*
G36*
X513Y-452D02*
X522Y-452D01*
X531Y-454D01*
X539Y-455D01*
X546Y-457D01*
X553Y-459D01*
X559Y-461D01*
X565Y-463D01*
X569Y-465D01*
X574Y-466D01*
X577Y-468D01*
X580Y-470D01*
X582Y-470D01*
X583Y-471D01*
X584Y-471D01*
X590Y-475D01*
X597Y-480D01*
X608Y-490D01*
X618Y-500D01*
X626Y-510D01*
X630Y-515D01*
X633Y-519D01*
X635Y-523D01*
X637Y-527D01*
X639Y-530D01*
X640Y-532D01*
X640Y-533D01*
X641Y-534D01*
X648Y-523D01*
X655Y-513D01*
X664Y-504D01*
X671Y-497D01*
X678Y-492D01*
X681Y-490D01*
X684Y-487D01*
X686Y-486D01*
X688Y-485D01*
X689Y-484D01*
X689D01*
X701Y-478D01*
X714Y-474D01*
X727Y-471D01*
X739Y-469D01*
X744Y-468D01*
X749Y-467D01*
X753Y-467D01*
X757D01*
X760Y-466D01*
X763D01*
X764D01*
X764D01*
X776Y-467D01*
X787Y-468D01*
X798Y-470D01*
X808Y-472D01*
X817Y-475D01*
X826Y-478D01*
X834Y-482D01*
X842Y-485D01*
X849Y-488D01*
X854Y-492D01*
X860Y-495D01*
X864Y-498D01*
X867Y-500D01*
X870Y-502D01*
X871Y-503D01*
X872Y-504D01*
X880Y-511D01*
X886Y-519D01*
X892Y-527D01*
X897Y-537D01*
X902Y-545D01*
X905Y-555D01*
X908Y-563D01*
X910Y-572D01*
X913Y-581D01*
X914Y-588D01*
X915Y-595D01*
X915Y-601D01*
X916Y-606D01*
X916Y-610D01*
Y-613D01*
X916Y-625D01*
X914Y-636D01*
X912Y-647D01*
X910Y-657D01*
X906Y-667D01*
X903Y-676D01*
X899Y-684D01*
X896Y-691D01*
X892Y-698D01*
X888Y-703D01*
X884Y-708D01*
X881Y-712D01*
X878Y-715D01*
X876Y-718D01*
X875Y-719D01*
X874Y-719D01*
X867Y-726D01*
X858Y-732D01*
X849Y-738D01*
X840Y-742D01*
X831Y-746D01*
X821Y-749D01*
X812Y-752D01*
X803Y-754D01*
X795Y-755D01*
X788Y-757D01*
X781Y-757D01*
X775Y-758D01*
X770D01*
X766Y-759D01*
X764D01*
X763D01*
X748Y-758D01*
X734Y-756D01*
X727Y-755D01*
X721Y-754D01*
X715Y-752D01*
X710Y-750D01*
X705Y-749D01*
X701Y-747D01*
X698Y-746D01*
X695Y-744D01*
X692Y-743D01*
X691Y-743D01*
X690Y-742D01*
X689D01*
X678Y-735D01*
X669Y-726D01*
X660Y-718D01*
X654Y-709D01*
X648Y-702D01*
X646Y-698D01*
X644Y-696D01*
X643Y-693D01*
X642Y-691D01*
X641Y-690D01*
Y-690D01*
X637Y-697D01*
X633Y-704D01*
X628Y-710D01*
X623Y-716D01*
X619Y-721D01*
X613Y-726D01*
X608Y-731D01*
X604Y-735D01*
X600Y-739D01*
X595Y-742D01*
X592Y-744D01*
X589Y-747D01*
X586Y-748D01*
X584Y-750D01*
X583Y-750D01*
X582Y-750D01*
X575Y-754D01*
X567Y-757D01*
X551Y-762D01*
X536Y-766D01*
X529Y-768D01*
X521Y-768D01*
X515Y-769D01*
X509Y-770D01*
X503Y-771D01*
X499D01*
X495Y-771D01*
X492D01*
X490D01*
X490D01*
X475Y-771D01*
X460Y-769D01*
X447Y-767D01*
X435Y-764D01*
X423Y-761D01*
X412Y-757D01*
X402Y-753D01*
X393Y-748D01*
X385Y-744D01*
X378Y-740D01*
X373Y-736D01*
X367Y-732D01*
X364Y-730D01*
X361Y-727D01*
X359Y-726D01*
X359Y-725D01*
X350Y-717D01*
X342Y-707D01*
X336Y-697D01*
X331Y-688D01*
X326Y-678D01*
X322Y-668D01*
X319Y-659D01*
X316Y-650D01*
X314Y-641D01*
X313Y-633D01*
X311Y-627D01*
X311Y-621D01*
X310Y-616D01*
X310Y-612D01*
Y-609D01*
X310Y-600D01*
X311Y-592D01*
X313Y-577D01*
X315Y-570D01*
X317Y-563D01*
X319Y-557D01*
X321Y-552D01*
X323Y-546D01*
X325Y-541D01*
X327Y-538D01*
X328Y-534D01*
X330Y-531D01*
X331Y-530D01*
X331Y-528D01*
X332Y-528D01*
X336Y-521D01*
X341Y-515D01*
X352Y-504D01*
X362Y-494D01*
X373Y-486D01*
X378Y-483D01*
X382Y-480D01*
X386Y-477D01*
X389Y-475D01*
X392Y-473D01*
X395Y-472D01*
X396Y-472D01*
X396Y-471D01*
X404Y-468D01*
X413Y-464D01*
X429Y-459D01*
X446Y-455D01*
X453Y-454D01*
X461Y-453D01*
X468Y-452D01*
X474Y-452D01*
X480Y-451D01*
X485D01*
X489Y-451D01*
X491D01*
X493D01*
X494D01*
X503D01*
X513Y-452D01*
D02*
G37*
G36*
X764Y-834D02*
X775Y-835D01*
X787Y-837D01*
X797Y-840D01*
X807Y-843D01*
X817Y-846D01*
X825Y-849D01*
X833Y-853D01*
X841Y-857D01*
X847Y-860D01*
X853Y-863D01*
X857Y-866D01*
X861Y-869D01*
X864Y-871D01*
X866Y-872D01*
X866Y-873D01*
X875Y-880D01*
X883Y-889D01*
X889Y-898D01*
X895Y-907D01*
X900Y-916D01*
X904Y-926D01*
X907Y-935D01*
X910Y-944D01*
X912Y-953D01*
X914Y-962D01*
X915Y-969D01*
X915Y-975D01*
X916Y-980D01*
X916Y-984D01*
Y-988D01*
X916Y-1001D01*
X914Y-1013D01*
X912Y-1024D01*
X910Y-1034D01*
X906Y-1045D01*
X903Y-1054D01*
X899Y-1062D01*
X895Y-1070D01*
X891Y-1077D01*
X887Y-1082D01*
X884Y-1088D01*
X880Y-1092D01*
X878Y-1095D01*
X875Y-1098D01*
X874Y-1099D01*
X874Y-1099D01*
X865Y-1107D01*
X856Y-1114D01*
X845Y-1120D01*
X835Y-1125D01*
X824Y-1130D01*
X813Y-1134D01*
X802Y-1137D01*
X791Y-1140D01*
X781Y-1142D01*
X771Y-1145D01*
X763Y-1146D01*
X755Y-1148D01*
X749Y-1149D01*
X745Y-1149D01*
X743D01*
X741Y-1150D01*
X741D01*
X741D01*
X729Y-1057D01*
X737Y-1056D01*
X745Y-1055D01*
X753Y-1054D01*
X760Y-1052D01*
X766Y-1051D01*
X772Y-1049D01*
X777Y-1047D01*
X783Y-1045D01*
X791Y-1039D01*
X799Y-1034D01*
X805Y-1028D01*
X810Y-1022D01*
X814Y-1016D01*
X817Y-1010D01*
X819Y-1005D01*
X820Y-1000D01*
X821Y-996D01*
X822Y-993D01*
Y-985D01*
X821Y-980D01*
X819Y-971D01*
X815Y-963D01*
X812Y-957D01*
X808Y-952D01*
X805Y-948D01*
X802Y-945D01*
X802Y-944D01*
X802D01*
X798Y-941D01*
X793Y-939D01*
X784Y-934D01*
X774Y-931D01*
X765Y-929D01*
X756Y-928D01*
X753Y-927D01*
X749D01*
X747Y-927D01*
X745D01*
X744D01*
X743D01*
X736Y-927D01*
X730Y-928D01*
X716Y-930D01*
X704Y-934D01*
X693Y-937D01*
X688Y-939D01*
X684Y-941D01*
X680Y-943D01*
X676Y-944D01*
X674Y-946D01*
X672Y-947D01*
X671Y-948D01*
X670Y-948D01*
X665Y-951D01*
X659Y-955D01*
X652Y-960D01*
X645Y-966D01*
X637Y-972D01*
X630Y-978D01*
X614Y-991D01*
X606Y-998D01*
X599Y-1004D01*
X593Y-1009D01*
X587Y-1014D01*
X583Y-1018D01*
X579Y-1021D01*
X577Y-1023D01*
X576Y-1024D01*
X560Y-1038D01*
X544Y-1051D01*
X530Y-1063D01*
X517Y-1073D01*
X504Y-1083D01*
X492Y-1091D01*
X482Y-1099D01*
X472Y-1106D01*
X463Y-1111D01*
X456Y-1116D01*
X449Y-1120D01*
X443Y-1124D01*
X439Y-1126D01*
X436Y-1128D01*
X434Y-1128D01*
X434Y-1129D01*
X424Y-1134D01*
X414Y-1138D01*
X403Y-1142D01*
X393Y-1145D01*
X383Y-1148D01*
X374Y-1151D01*
X365Y-1153D01*
X356Y-1155D01*
X349Y-1156D01*
X342Y-1157D01*
X335Y-1159D01*
X330Y-1159D01*
X326Y-1160D01*
X323D01*
X321Y-1160D01*
X320D01*
Y-833D01*
X426D01*
Y-1019D01*
X432Y-1016D01*
X437Y-1013D01*
X442Y-1009D01*
X447Y-1006D01*
X451Y-1004D01*
X454Y-1002D01*
X456Y-1000D01*
X457Y-1000D01*
X460Y-997D01*
X464Y-994D01*
X469Y-990D01*
X475Y-986D01*
X485Y-977D01*
X496Y-967D01*
X502Y-962D01*
X507Y-958D01*
X512Y-954D01*
X516Y-950D01*
X519Y-947D01*
X522Y-944D01*
X524Y-943D01*
X524Y-943D01*
X534Y-934D01*
X543Y-926D01*
X552Y-919D01*
X561Y-912D01*
X568Y-905D01*
X575Y-900D01*
X582Y-895D01*
X588Y-891D01*
X594Y-887D01*
X599Y-883D01*
X603Y-880D01*
X606Y-878D01*
X609Y-876D01*
X611Y-875D01*
X612Y-875D01*
X612Y-874D01*
X625Y-867D01*
X638Y-861D01*
X649Y-855D01*
X660Y-851D01*
X665Y-849D01*
X669Y-848D01*
X673Y-847D01*
X676Y-845D01*
X678Y-844D01*
X680Y-844D01*
X681Y-844D01*
X681D01*
X694Y-840D01*
X707Y-838D01*
X719Y-836D01*
X730Y-835D01*
X734Y-834D01*
X739Y-834D01*
X742D01*
X746Y-833D01*
X748D01*
X750D01*
X752D01*
X752D01*
X764Y-834D01*
D02*
G37*
G36*
X536Y-1199D02*
X553Y-1200D01*
X568Y-1203D01*
X583Y-1206D01*
X596Y-1210D01*
X609Y-1214D01*
X620Y-1219D01*
X631Y-1224D01*
X640Y-1229D01*
X648Y-1233D01*
X655Y-1237D01*
X661Y-1241D01*
X665Y-1244D01*
X669Y-1247D01*
X671Y-1249D01*
X672Y-1249D01*
X680Y-1257D01*
X687Y-1265D01*
X693Y-1273D01*
X698Y-1282D01*
X702Y-1290D01*
X706Y-1298D01*
X709Y-1306D01*
X712Y-1313D01*
X713Y-1320D01*
X715Y-1327D01*
X716Y-1333D01*
X716Y-1337D01*
X717Y-1341D01*
X717Y-1344D01*
Y-1353D01*
X716Y-1359D01*
X714Y-1371D01*
X711Y-1382D01*
X708Y-1391D01*
X706Y-1395D01*
X704Y-1399D01*
X702Y-1403D01*
X701Y-1406D01*
X700Y-1408D01*
X699Y-1410D01*
X698Y-1411D01*
X698Y-1411D01*
X799Y-1396D01*
Y-1220D01*
X906D01*
Y-1467D01*
X596Y-1515D01*
X583Y-1439D01*
X590Y-1433D01*
X597Y-1427D01*
X603Y-1421D01*
X608Y-1414D01*
X612Y-1408D01*
X616Y-1402D01*
X619Y-1397D01*
X621Y-1391D01*
X623Y-1386D01*
X624Y-1381D01*
X625Y-1377D01*
X626Y-1373D01*
X626Y-1371D01*
X626Y-1369D01*
Y-1367D01*
X626Y-1361D01*
X625Y-1355D01*
X624Y-1350D01*
X622Y-1345D01*
X618Y-1337D01*
X613Y-1329D01*
X608Y-1323D01*
X604Y-1318D01*
X602Y-1317D01*
X601Y-1315D01*
X600Y-1315D01*
X600Y-1315D01*
X594Y-1311D01*
X588Y-1308D01*
X575Y-1303D01*
X562Y-1299D01*
X548Y-1297D01*
X542Y-1296D01*
X536Y-1295D01*
X531Y-1294D01*
X526D01*
X522Y-1294D01*
X520D01*
X518D01*
X517D01*
X507Y-1294D01*
X496Y-1295D01*
X487Y-1296D01*
X478Y-1297D01*
X471Y-1299D01*
X464Y-1301D01*
X457Y-1302D01*
X451Y-1304D01*
X446Y-1306D01*
X442Y-1308D01*
X438Y-1310D01*
X435Y-1312D01*
X433Y-1313D01*
X431Y-1314D01*
X430Y-1315D01*
X430Y-1315D01*
X425Y-1319D01*
X421Y-1323D01*
X417Y-1327D01*
X414Y-1331D01*
X411Y-1336D01*
X409Y-1340D01*
X405Y-1347D01*
X403Y-1354D01*
X403Y-1357D01*
X402Y-1359D01*
X402Y-1362D01*
Y-1364D01*
X402Y-1369D01*
X403Y-1373D01*
X405Y-1382D01*
X409Y-1389D01*
X413Y-1396D01*
X417Y-1401D01*
X420Y-1405D01*
X423Y-1408D01*
X423Y-1409D01*
X424Y-1409D01*
X433Y-1416D01*
X442Y-1421D01*
X453Y-1425D01*
X463Y-1428D01*
X471Y-1430D01*
X475Y-1431D01*
X478Y-1432D01*
X481Y-1432D01*
X483Y-1433D01*
X485D01*
X485D01*
X473Y-1526D01*
X458Y-1524D01*
X445Y-1521D01*
X432Y-1518D01*
X421Y-1514D01*
X410Y-1510D01*
X400Y-1506D01*
X391Y-1501D01*
X383Y-1496D01*
X376Y-1492D01*
X370Y-1488D01*
X364Y-1484D01*
X360Y-1481D01*
X356Y-1477D01*
X354Y-1475D01*
X352Y-1474D01*
X352Y-1473D01*
X345Y-1465D01*
X338Y-1456D01*
X333Y-1447D01*
X328Y-1438D01*
X324Y-1429D01*
X320Y-1420D01*
X317Y-1411D01*
X315Y-1403D01*
X313Y-1395D01*
X312Y-1388D01*
X311Y-1381D01*
X311Y-1376D01*
X310Y-1371D01*
X310Y-1368D01*
Y-1365D01*
X311Y-1351D01*
X313Y-1337D01*
X316Y-1324D01*
X320Y-1312D01*
X325Y-1301D01*
X331Y-1291D01*
X337Y-1282D01*
X343Y-1273D01*
X349Y-1266D01*
X355Y-1260D01*
X360Y-1254D01*
X365Y-1250D01*
X369Y-1246D01*
X373Y-1244D01*
X374Y-1242D01*
X375Y-1242D01*
X388Y-1234D01*
X400Y-1227D01*
X413Y-1221D01*
X425Y-1217D01*
X438Y-1212D01*
X450Y-1209D01*
X461Y-1206D01*
X471Y-1204D01*
X482Y-1202D01*
X491Y-1200D01*
X499Y-1200D01*
X506Y-1199D01*
X511Y-1199D01*
X515Y-1198D01*
X518D01*
X519D01*
X536Y-1199D01*
D02*
G37*
G36*
X914Y-1922D02*
X320D01*
Y-1824D01*
X572D01*
Y-1620D01*
X673D01*
Y-1824D01*
X813D01*
Y-1588D01*
X914D01*
Y-1922D01*
D02*
G37*
G36*
X435Y-2035D02*
X448Y-2041D01*
X460Y-2047D01*
X470Y-2053D01*
X480Y-2058D01*
X489Y-2064D01*
X497Y-2068D01*
X504Y-2072D01*
X510Y-2076D01*
X515Y-2079D01*
X520Y-2082D01*
X524Y-2085D01*
X527Y-2087D01*
X529Y-2089D01*
X531Y-2090D01*
X532Y-2090D01*
X532Y-2091D01*
X542Y-2099D01*
X551Y-2107D01*
X560Y-2116D01*
X567Y-2125D01*
X573Y-2132D01*
X576Y-2135D01*
X578Y-2138D01*
X580Y-2140D01*
X581Y-2142D01*
X582Y-2143D01*
X582Y-2143D01*
X585Y-2132D01*
X587Y-2121D01*
X591Y-2111D01*
X595Y-2102D01*
X599Y-2094D01*
X604Y-2086D01*
X608Y-2079D01*
X613Y-2072D01*
X617Y-2067D01*
X621Y-2062D01*
X625Y-2058D01*
X629Y-2054D01*
X631Y-2052D01*
X633Y-2050D01*
X635Y-2049D01*
X635Y-2048D01*
X644Y-2042D01*
X652Y-2037D01*
X662Y-2032D01*
X671Y-2028D01*
X680Y-2025D01*
X690Y-2023D01*
X698Y-2020D01*
X707Y-2019D01*
X716Y-2017D01*
X723Y-2016D01*
X730Y-2015D01*
X736Y-2015D01*
X741Y-2014D01*
X745D01*
X747D01*
X748D01*
X758Y-2015D01*
X767Y-2015D01*
X777Y-2017D01*
X786Y-2018D01*
X794Y-2020D01*
X802Y-2021D01*
X809Y-2023D01*
X816Y-2025D01*
X822Y-2028D01*
X827Y-2029D01*
X831Y-2031D01*
X835Y-2033D01*
X838Y-2034D01*
X841Y-2035D01*
X842Y-2036D01*
X842Y-2036D01*
X849Y-2041D01*
X856Y-2045D01*
X862Y-2049D01*
X868Y-2054D01*
X873Y-2059D01*
X877Y-2064D01*
X881Y-2068D01*
X885Y-2073D01*
X888Y-2077D01*
X891Y-2081D01*
X893Y-2084D01*
X895Y-2087D01*
X896Y-2089D01*
X897Y-2091D01*
X898Y-2092D01*
Y-2092D01*
X901Y-2100D01*
X903Y-2107D01*
X905Y-2115D01*
X907Y-2125D01*
X910Y-2143D01*
X912Y-2162D01*
X913Y-2171D01*
X913Y-2179D01*
X914Y-2186D01*
Y-2193D01*
X914Y-2198D01*
Y-2413D01*
X320D01*
Y-2315D01*
X568D01*
Y-2294D01*
X568Y-2283D01*
X567Y-2272D01*
X566Y-2264D01*
X565Y-2257D01*
X563Y-2252D01*
X562Y-2248D01*
X561Y-2246D01*
X561Y-2245D01*
X558Y-2240D01*
X554Y-2234D01*
X550Y-2229D01*
X546Y-2225D01*
X543Y-2222D01*
X540Y-2218D01*
X537Y-2217D01*
X536Y-2216D01*
X532Y-2213D01*
X528Y-2210D01*
X522Y-2206D01*
X515Y-2202D01*
X508Y-2198D01*
X501Y-2193D01*
X486Y-2185D01*
X479Y-2181D01*
X472Y-2177D01*
X466Y-2173D01*
X460Y-2170D01*
X456Y-2168D01*
X452Y-2166D01*
X450Y-2164D01*
X449Y-2164D01*
X320Y-2093D01*
Y-1975D01*
X435Y-2035D01*
D02*
G37*
G36*
X610Y-2509D02*
X620Y-2509D01*
X629Y-2510D01*
X638Y-2511D01*
X646Y-2512D01*
X653Y-2513D01*
X659Y-2513D01*
X665Y-2515D01*
X670Y-2516D01*
X674Y-2517D01*
X678Y-2517D01*
X680Y-2518D01*
X682Y-2519D01*
X683Y-2519D01*
X684D01*
X696Y-2524D01*
X707Y-2530D01*
X716Y-2536D01*
X724Y-2542D01*
X730Y-2549D01*
X733Y-2551D01*
X735Y-2553D01*
X737Y-2556D01*
X738Y-2557D01*
X738Y-2558D01*
X739Y-2558D01*
X743Y-2564D01*
X746Y-2569D01*
X749Y-2575D01*
X751Y-2581D01*
X755Y-2592D01*
X758Y-2603D01*
X759Y-2608D01*
X759Y-2613D01*
X760Y-2617D01*
Y-2620D01*
X760Y-2623D01*
Y-2627D01*
X759Y-2640D01*
X757Y-2652D01*
X755Y-2663D01*
X751Y-2673D01*
X749Y-2677D01*
X748Y-2681D01*
X746Y-2684D01*
X745Y-2686D01*
X744Y-2689D01*
X743Y-2690D01*
X742Y-2691D01*
X742Y-2692D01*
X734Y-2702D01*
X726Y-2712D01*
X717Y-2721D01*
X708Y-2729D01*
X700Y-2735D01*
X697Y-2737D01*
X694Y-2740D01*
X691Y-2741D01*
X689Y-2743D01*
X688Y-2743D01*
X687Y-2744D01*
X750D01*
Y-2830D01*
X320D01*
Y-2736D01*
X515D01*
X528D01*
X540Y-2736D01*
X552Y-2736D01*
X562Y-2735D01*
X571Y-2735D01*
X579Y-2734D01*
X587Y-2733D01*
X593Y-2733D01*
X599Y-2732D01*
X604Y-2731D01*
X608Y-2731D01*
X611Y-2730D01*
X613Y-2730D01*
X615Y-2729D01*
X615Y-2729D01*
X616D01*
X626Y-2726D01*
X634Y-2722D01*
X641Y-2717D01*
X647Y-2713D01*
X652Y-2709D01*
X655Y-2705D01*
X657Y-2703D01*
X658Y-2702D01*
X663Y-2695D01*
X667Y-2687D01*
X669Y-2680D01*
X672Y-2674D01*
X673Y-2668D01*
X673Y-2664D01*
X673Y-2662D01*
Y-2660D01*
X673Y-2653D01*
X672Y-2647D01*
X669Y-2641D01*
X668Y-2636D01*
X665Y-2632D01*
X663Y-2630D01*
X662Y-2628D01*
X662Y-2627D01*
X657Y-2622D01*
X651Y-2618D01*
X646Y-2614D01*
X640Y-2612D01*
X635Y-2610D01*
X631Y-2608D01*
X629Y-2608D01*
X628Y-2607D01*
X628D01*
X623Y-2607D01*
X618Y-2606D01*
X611Y-2605D01*
X605Y-2604D01*
X590Y-2603D01*
X575Y-2603D01*
X568Y-2602D01*
X561D01*
X556Y-2602D01*
X550D01*
X546D01*
X543D01*
X540D01*
X540D01*
X320D01*
Y-2508D01*
X587D01*
X599D01*
X610Y-2509D01*
D02*
G37*
%LPC*%
G36*
X574Y2749D02*
X572D01*
X572D01*
Y2609D01*
X581D01*
X589Y2610D01*
X597Y2611D01*
X604Y2612D01*
X611Y2613D01*
X617Y2615D01*
X622Y2617D01*
X627Y2619D01*
X632Y2621D01*
X636Y2622D01*
X639Y2624D01*
X642Y2626D01*
X644Y2627D01*
X645Y2628D01*
X646Y2629D01*
X647D01*
X651Y2633D01*
X655Y2637D01*
X659Y2641D01*
X662Y2645D01*
X665Y2650D01*
X667Y2654D01*
X670Y2661D01*
X672Y2668D01*
X673Y2672D01*
X673Y2674D01*
X673Y2676D01*
Y2679D01*
X673Y2684D01*
X673Y2689D01*
X671Y2693D01*
X669Y2698D01*
X665Y2706D01*
X661Y2713D01*
X656Y2719D01*
X652Y2723D01*
X650Y2725D01*
X649Y2726D01*
X648Y2726D01*
X648Y2727D01*
X643Y2730D01*
X637Y2734D01*
X626Y2739D01*
X613Y2743D01*
X601Y2746D01*
X595Y2747D01*
X589Y2747D01*
X584Y2748D01*
X580Y2748D01*
X577D01*
X574Y2749D01*
D02*
G37*
G36*
X548Y2165D02*
X544D01*
X542D01*
X541D01*
X529Y2165D01*
X518Y2164D01*
X508Y2163D01*
X498Y2161D01*
X490Y2159D01*
X482Y2157D01*
X475Y2155D01*
X468Y2153D01*
X462Y2150D01*
X457Y2148D01*
X453Y2147D01*
X450Y2145D01*
X447Y2143D01*
X445Y2142D01*
X444Y2141D01*
X444Y2141D01*
X438Y2136D01*
X433Y2132D01*
X429Y2127D01*
X425Y2122D01*
X422Y2117D01*
X420Y2112D01*
X417Y2108D01*
X416Y2103D01*
X414Y2096D01*
X413Y2092D01*
X412Y2089D01*
Y2087D01*
X412Y2085D01*
Y2084D01*
X412Y2078D01*
X413Y2072D01*
X415Y2067D01*
X417Y2062D01*
X422Y2053D01*
X428Y2046D01*
X433Y2039D01*
X436Y2037D01*
X439Y2035D01*
X440Y2033D01*
X442Y2031D01*
X443Y2031D01*
X443Y2031D01*
X450Y2027D01*
X457Y2024D01*
X464Y2021D01*
X472Y2018D01*
X489Y2014D01*
X506Y2011D01*
X513Y2010D01*
X521Y2010D01*
X527Y2010D01*
X532Y2009D01*
X537Y2009D01*
X541D01*
X543D01*
X544D01*
X556Y2009D01*
X567Y2010D01*
X577Y2011D01*
X587Y2012D01*
X596Y2014D01*
X604Y2016D01*
X611Y2017D01*
X617Y2020D01*
X623Y2022D01*
X628Y2024D01*
X632Y2025D01*
X635Y2027D01*
X638Y2028D01*
X640Y2030D01*
X641Y2030D01*
X641Y2031D01*
X647Y2035D01*
X652Y2039D01*
X656Y2044D01*
X660Y2049D01*
X663Y2053D01*
X665Y2058D01*
X668Y2062D01*
X669Y2067D01*
X672Y2074D01*
X673Y2078D01*
X673Y2080D01*
X673Y2083D01*
Y2086D01*
X673Y2092D01*
X672Y2098D01*
X670Y2103D01*
X668Y2109D01*
X663Y2118D01*
X657Y2127D01*
X651Y2133D01*
X648Y2136D01*
X646Y2138D01*
X644Y2140D01*
X642Y2141D01*
X641Y2142D01*
X641Y2142D01*
X634Y2146D01*
X627Y2150D01*
X620Y2153D01*
X611Y2155D01*
X595Y2159D01*
X579Y2162D01*
X571Y2163D01*
X564Y2164D01*
X558Y2164D01*
X552Y2165D01*
X548Y2165D01*
D02*
G37*
G36*
X542Y1349D02*
X538D01*
X536D01*
X536D01*
X524Y1349D01*
X512Y1348D01*
X502Y1347D01*
X492Y1345D01*
X483Y1344D01*
X475Y1341D01*
X468Y1339D01*
X461Y1337D01*
X455Y1334D01*
X450Y1332D01*
X446Y1330D01*
X442Y1328D01*
X439Y1326D01*
X438Y1325D01*
X436Y1324D01*
X436Y1324D01*
X430Y1319D01*
X425Y1314D01*
X421Y1309D01*
X417Y1304D01*
X414Y1299D01*
X411Y1294D01*
X409Y1289D01*
X407Y1284D01*
X404Y1276D01*
X403Y1272D01*
X403Y1269D01*
Y1267D01*
X403Y1265D01*
Y1263D01*
X403Y1257D01*
X404Y1250D01*
X406Y1244D01*
X408Y1239D01*
X413Y1228D01*
X419Y1219D01*
X422Y1215D01*
X425Y1212D01*
X428Y1209D01*
X431Y1206D01*
X433Y1204D01*
X435Y1203D01*
X435Y1202D01*
X436Y1202D01*
X442Y1197D01*
X450Y1193D01*
X457Y1190D01*
X465Y1187D01*
X474Y1185D01*
X482Y1182D01*
X498Y1179D01*
X506Y1179D01*
X513Y1178D01*
X519Y1177D01*
X524Y1177D01*
X529Y1176D01*
X532D01*
X534D01*
X535D01*
X547Y1177D01*
X558Y1177D01*
X568Y1179D01*
X578Y1180D01*
X587Y1182D01*
X595Y1184D01*
X602Y1186D01*
X609Y1189D01*
X615Y1191D01*
X620Y1193D01*
X624Y1196D01*
X628Y1197D01*
X630Y1199D01*
X632Y1200D01*
X633Y1201D01*
X634Y1201D01*
X640Y1206D01*
X645Y1211D01*
X650Y1216D01*
X654Y1222D01*
X657Y1227D01*
X659Y1232D01*
X662Y1237D01*
X663Y1241D01*
X666Y1250D01*
X667Y1253D01*
X667Y1256D01*
X668Y1259D01*
Y1262D01*
X667Y1269D01*
X666Y1275D01*
X665Y1281D01*
X662Y1287D01*
X657Y1297D01*
X651Y1306D01*
X647Y1310D01*
X644Y1313D01*
X642Y1316D01*
X639Y1319D01*
X637Y1321D01*
X635Y1322D01*
X634Y1323D01*
X634Y1323D01*
X627Y1328D01*
X620Y1332D01*
X612Y1335D01*
X604Y1338D01*
X596Y1341D01*
X588Y1343D01*
X572Y1346D01*
X565Y1347D01*
X558Y1348D01*
X551Y1348D01*
X546Y1349D01*
X542Y1349D01*
D02*
G37*
G36*
X626Y919D02*
X622D01*
X619D01*
X616D01*
X615D01*
X604D01*
X593Y918D01*
X583Y918D01*
X572Y917D01*
X564Y916D01*
X555Y916D01*
X547Y915D01*
X540Y914D01*
X534Y913D01*
X529Y912D01*
X524Y912D01*
X520Y911D01*
X517Y910D01*
X514Y910D01*
X513Y909D01*
X513D01*
X506Y908D01*
X499Y906D01*
X493Y904D01*
X488Y902D01*
X482Y900D01*
X478Y898D01*
X474Y897D01*
X470Y895D01*
X467Y893D01*
X464Y892D01*
X461Y891D01*
X460Y889D01*
X457Y887D01*
X456Y887D01*
X450Y882D01*
X444Y876D01*
X440Y870D01*
X436Y864D01*
X433Y859D01*
X431Y855D01*
X430Y853D01*
X429Y852D01*
Y852D01*
X428Y847D01*
X426Y843D01*
X424Y832D01*
X423Y821D01*
X422Y810D01*
X421Y804D01*
X421Y800D01*
Y795D01*
X421Y791D01*
Y710D01*
X813D01*
Y775D01*
X813Y783D01*
X813Y791D01*
X812Y799D01*
X812Y805D01*
X811Y811D01*
X811Y816D01*
X810Y821D01*
X810Y824D01*
X809Y827D01*
X809Y830D01*
X809Y832D01*
Y833D01*
X808Y833D01*
Y834D01*
X805Y844D01*
X801Y853D01*
X796Y861D01*
X791Y868D01*
X787Y873D01*
X783Y877D01*
X780Y880D01*
X780Y881D01*
X779D01*
X770Y887D01*
X761Y894D01*
X751Y898D01*
X741Y902D01*
X732Y905D01*
X729Y907D01*
X725Y908D01*
X723Y909D01*
X721Y909D01*
X719Y909D01*
X719D01*
X712Y911D01*
X704Y912D01*
X687Y915D01*
X670Y916D01*
X661Y917D01*
X653Y917D01*
X645Y918D01*
X638Y918D01*
X632D01*
X626Y919D01*
D02*
G37*
G36*
X630Y206D02*
X626D01*
X622D01*
X619D01*
X616D01*
X615D01*
X613D01*
X613D01*
X601D01*
X589D01*
X577Y205D01*
X566Y205D01*
X556D01*
X547Y204D01*
X537Y203D01*
X529Y203D01*
X521Y203D01*
X513Y202D01*
X506Y201D01*
X499Y200D01*
X493Y200D01*
X486Y199D01*
X476Y197D01*
X467Y196D01*
X460Y194D01*
X453Y193D01*
X449Y192D01*
X445Y191D01*
X442Y190D01*
X441Y189D01*
X441D01*
X434Y186D01*
X429Y182D01*
X424Y179D01*
X420Y175D01*
X416Y171D01*
X413Y168D01*
X411Y164D01*
X409Y161D01*
X406Y154D01*
X405Y149D01*
Y147D01*
X404Y146D01*
Y145D01*
X405Y140D01*
X406Y135D01*
X408Y130D01*
X410Y126D01*
X416Y118D01*
X422Y112D01*
X429Y107D01*
X435Y103D01*
X437Y102D01*
X439Y101D01*
X440Y100D01*
X440D01*
X444Y99D01*
X448Y98D01*
X453Y96D01*
X458Y95D01*
X470Y93D01*
X482Y91D01*
X496Y89D01*
X511Y88D01*
X540Y86D01*
X554Y85D01*
X568Y85D01*
X580Y85D01*
X586D01*
X591D01*
X596Y84D01*
X600D01*
X604D01*
X607D01*
X609D01*
X611D01*
X612D01*
X613D01*
X625D01*
X637D01*
X648Y85D01*
X659Y85D01*
X669D01*
X679Y85D01*
X688Y86D01*
X697Y87D01*
X705Y87D01*
X713Y88D01*
X720Y88D01*
X727Y89D01*
X733Y90D01*
X739Y91D01*
X750Y92D01*
X759Y94D01*
X766Y95D01*
X772Y96D01*
X777Y98D01*
X781Y99D01*
X783Y99D01*
X784Y100D01*
X785D01*
X791Y103D01*
X797Y107D01*
X802Y110D01*
X806Y114D01*
X810Y118D01*
X813Y122D01*
X815Y125D01*
X817Y129D01*
X820Y135D01*
X821Y140D01*
Y142D01*
X822Y143D01*
Y145D01*
X821Y150D01*
X820Y155D01*
X818Y159D01*
X816Y164D01*
X810Y171D01*
X803Y178D01*
X797Y182D01*
X791Y186D01*
X788Y187D01*
X787Y188D01*
X785Y189D01*
X785D01*
X781Y190D01*
X777Y192D01*
X772Y193D01*
X767Y195D01*
X755Y197D01*
X743Y199D01*
X729Y200D01*
X715Y202D01*
X685Y203D01*
X671Y204D01*
X658Y205D01*
X645Y205D01*
X640D01*
X635D01*
X630Y206D01*
D02*
G37*
G36*
X742Y-209D02*
X540D01*
Y-321D01*
X742Y-209D01*
D02*
G37*
G36*
X758Y-554D02*
X756D01*
X755D01*
X755D01*
X743Y-555D01*
X732Y-556D01*
X723Y-559D01*
X716Y-562D01*
X710Y-565D01*
X706Y-568D01*
X703Y-570D01*
X702Y-570D01*
X696Y-577D01*
X692Y-584D01*
X688Y-591D01*
X686Y-598D01*
X685Y-604D01*
X684Y-608D01*
X684Y-610D01*
Y-613D01*
X685Y-622D01*
X687Y-630D01*
X690Y-637D01*
X693Y-643D01*
X697Y-648D01*
X699Y-651D01*
X701Y-653D01*
X702Y-654D01*
X710Y-660D01*
X719Y-664D01*
X727Y-667D01*
X736Y-668D01*
X743Y-670D01*
X747Y-670D01*
X749D01*
X752Y-671D01*
X754D01*
X755D01*
X755D01*
X767Y-670D01*
X777Y-668D01*
X786Y-665D01*
X793Y-662D01*
X799Y-660D01*
X803Y-657D01*
X806Y-655D01*
X807Y-654D01*
X810Y-651D01*
X813Y-648D01*
X818Y-641D01*
X821Y-634D01*
X824Y-627D01*
X825Y-621D01*
X825Y-616D01*
X826Y-614D01*
Y-607D01*
X825Y-603D01*
X823Y-595D01*
X820Y-588D01*
X817Y-582D01*
X813Y-577D01*
X810Y-574D01*
X808Y-571D01*
X807Y-570D01*
X807D01*
X799Y-565D01*
X791Y-561D01*
X782Y-558D01*
X774Y-556D01*
X766Y-555D01*
X763Y-554D01*
X761D01*
X758Y-554D01*
D02*
G37*
G36*
X504Y-543D02*
X502D01*
X500D01*
X500D01*
X491D01*
X483Y-544D01*
X475Y-545D01*
X468Y-546D01*
X461Y-548D01*
X455Y-549D01*
X450Y-551D01*
X445Y-553D01*
X440Y-555D01*
X437Y-556D01*
X433Y-558D01*
X431Y-559D01*
X429Y-561D01*
X428Y-562D01*
X427Y-562D01*
X426Y-563D01*
X422Y-566D01*
X418Y-570D01*
X415Y-574D01*
X412Y-578D01*
X408Y-586D01*
X405Y-594D01*
X403Y-600D01*
X403Y-603D01*
X402Y-606D01*
X402Y-608D01*
Y-610D01*
X402Y-616D01*
X403Y-621D01*
X404Y-625D01*
X406Y-630D01*
X410Y-639D01*
X414Y-646D01*
X419Y-651D01*
X423Y-656D01*
X425Y-657D01*
X426Y-658D01*
X427Y-659D01*
X427Y-659D01*
X432Y-663D01*
X438Y-666D01*
X450Y-671D01*
X462Y-675D01*
X474Y-677D01*
X479Y-678D01*
X484Y-678D01*
X489Y-679D01*
X493D01*
X496Y-679D01*
X499D01*
X500D01*
X501D01*
X508Y-679D01*
X516Y-678D01*
X529Y-676D01*
X535Y-675D01*
X540Y-673D01*
X545Y-671D01*
X550Y-670D01*
X554Y-668D01*
X557Y-666D01*
X560Y-664D01*
X563Y-663D01*
X565Y-662D01*
X566Y-661D01*
X567Y-660D01*
X567D01*
X572Y-656D01*
X575Y-652D01*
X579Y-648D01*
X582Y-644D01*
X584Y-640D01*
X586Y-636D01*
X589Y-628D01*
X591Y-622D01*
X591Y-619D01*
X592Y-617D01*
X592Y-614D01*
Y-612D01*
X592Y-606D01*
X591Y-601D01*
X590Y-596D01*
X588Y-592D01*
X584Y-584D01*
X580Y-577D01*
X575Y-571D01*
X571Y-567D01*
X569Y-565D01*
X568Y-564D01*
X568Y-563D01*
X567D01*
X562Y-559D01*
X557Y-556D01*
X547Y-552D01*
X535Y-548D01*
X525Y-546D01*
X519Y-545D01*
X515Y-544D01*
X511Y-544D01*
X507D01*
X504Y-543D01*
D02*
G37*
G36*
X745Y-2115D02*
X742D01*
X741D01*
X740D01*
X740D01*
X729Y-2116D01*
X719Y-2117D01*
X712Y-2119D01*
X705Y-2121D01*
X699Y-2123D01*
X695Y-2125D01*
X693Y-2126D01*
X692Y-2127D01*
X686Y-2131D01*
X681Y-2136D01*
X677Y-2141D01*
X674Y-2146D01*
X671Y-2150D01*
X670Y-2154D01*
X669Y-2156D01*
X669Y-2157D01*
X668Y-2161D01*
X667Y-2165D01*
X666Y-2171D01*
X665Y-2178D01*
X665Y-2184D01*
X664Y-2191D01*
X664Y-2206D01*
X663Y-2213D01*
Y-2219D01*
X663Y-2226D01*
Y-2315D01*
X813D01*
Y-2215D01*
X813Y-2206D01*
X813Y-2197D01*
X812Y-2190D01*
Y-2183D01*
X812Y-2178D01*
X811Y-2173D01*
X811Y-2169D01*
X810Y-2166D01*
X810Y-2163D01*
X809Y-2161D01*
X809Y-2160D01*
Y-2159D01*
X809Y-2158D01*
X806Y-2151D01*
X802Y-2145D01*
X799Y-2139D01*
X795Y-2135D01*
X791Y-2132D01*
X788Y-2129D01*
X786Y-2127D01*
X785Y-2127D01*
X778Y-2123D01*
X770Y-2120D01*
X763Y-2118D01*
X756Y-2117D01*
X749Y-2116D01*
X745Y-2115D01*
D02*
G37*
%LPD*%
D12*
X2488Y1378D02*
G03*
X2094Y984I0J-394D01*
G01*
X2094Y-984D02*
G03*
X2488Y-1378I394J0D01*
G01*
X4456D02*
G03*
X4850Y-984I0J394D01*
G01*
X4850Y984D02*
G03*
X4456Y1378I-394J0D01*
G01*
X2094Y-984D02*
Y984D01*
X2488Y-1378D02*
X4456D01*
X4850Y-984D02*
Y984D01*
X2488Y1378D02*
X4456D01*
D13*
X3896Y2052D02*
Y2328D01*
Y2052D02*
X4152D01*
X3896Y2328D02*
X4152D01*
X4348Y2052D02*
X4604D01*
Y2328D01*
X4348D02*
X4604D01*
X2896Y2052D02*
Y2328D01*
Y2052D02*
X3152D01*
X2896Y2328D02*
X3152D01*
X3348Y2052D02*
X3604D01*
Y2328D01*
X3348D02*
X3604D01*
X9990Y1380D02*
Y1513D01*
Y1447D01*
X10390D01*
X10323Y1380D01*
D14*
X7357Y-2098D02*
X7223D01*
X7157Y-2031D01*
X7223Y-1964D01*
X7357D01*
Y-1898D02*
X7157D01*
Y-1798D01*
X7190Y-1765D01*
X7323D01*
X7357Y-1798D01*
Y-1898D01*
Y-1698D02*
X7157D01*
Y-1598D01*
X7190Y-1565D01*
X7323D01*
X7357Y-1598D01*
Y-1698D01*
X6797Y-2098D02*
X6930D01*
Y-1998D01*
X6897Y-1964D01*
X6797D01*
Y-1898D02*
X6997D01*
Y-1798D01*
X6963Y-1765D01*
X6897D01*
X6863Y-1798D01*
Y-1898D01*
Y-1831D02*
X6797Y-1765D01*
X6997Y-1565D02*
Y-1698D01*
X6897D01*
Y-1631D01*
Y-1698D01*
X6797D01*
X5796Y1531D02*
Y1598D01*
Y1564D01*
X5995D01*
X5962Y1531D01*
X5796Y1698D02*
X5829D01*
Y1731D01*
X5796D01*
Y1698D01*
X5962Y1864D02*
X5995Y1898D01*
Y1964D01*
X5962Y1998D01*
X5829D01*
X5796Y1964D01*
Y1898D01*
X5829Y1864D01*
X5962D01*
X5796Y2064D02*
Y2131D01*
Y2098D01*
X5995D01*
X5962Y2064D01*
X7734Y1531D02*
X7767Y1564D01*
Y1631D01*
X7734Y1664D01*
X7600D01*
X7567Y1631D01*
Y1564D01*
X7600Y1531D01*
X7734D01*
X7567Y1731D02*
X7600D01*
Y1764D01*
X7567D01*
Y1731D01*
Y1898D02*
Y1964D01*
Y1931D01*
X7767D01*
X7734Y1898D01*
X7567Y2064D02*
Y2131D01*
Y2098D01*
X7767D01*
X7734Y2064D01*
X5796Y-2131D02*
Y-2064D01*
Y-2098D01*
X5995D01*
X5962Y-2131D01*
X5796Y-1964D02*
X5829D01*
Y-1931D01*
X5796D01*
Y-1964D01*
Y-1798D02*
Y-1731D01*
Y-1765D01*
X5995D01*
X5962Y-1798D01*
X5796Y-1631D02*
Y-1565D01*
Y-1598D01*
X5995D01*
X5962Y-1631D01*
X7143Y1531D02*
X7177Y1564D01*
Y1631D01*
X7143Y1664D01*
X7010D01*
X6977Y1631D01*
Y1564D01*
X7010Y1531D01*
X7143D01*
X6977Y1731D02*
X7010D01*
Y1764D01*
X6977D01*
Y1731D01*
Y1898D02*
Y1964D01*
Y1931D01*
X7177D01*
X7143Y1898D01*
X6977Y2164D02*
X7177D01*
X7077Y2064D01*
Y2198D01*
X9230Y-1390D02*
Y-1640D01*
X9355D01*
X9397Y-1598D01*
Y-1515D01*
X9355Y-1473D01*
X9230D01*
X9480Y-1390D02*
X9563D01*
X9522D01*
Y-1640D01*
X9480Y-1598D01*
X5796Y-439D02*
Y-373D01*
Y-406D01*
X5995D01*
X5962Y-439D01*
X5796Y-273D02*
X5829D01*
Y-240D01*
X5796D01*
Y-273D01*
X5962Y-106D02*
X5995Y-73D01*
Y-6D01*
X5962Y27D01*
X5829D01*
X5796Y-6D01*
Y-73D01*
X5829Y-106D01*
X5962D01*
X5995Y94D02*
Y227D01*
X5962D01*
X5829Y94D01*
X5796D01*
X4093Y1783D02*
X4060Y1750D01*
X3993D01*
X3960Y1783D01*
Y1917D01*
X3993Y1950D01*
X4060D01*
X4093Y1917D01*
X4293Y1950D02*
X4160D01*
X4293Y1817D01*
Y1783D01*
X4260Y1750D01*
X4193D01*
X4160Y1783D01*
X4360D02*
X4393Y1750D01*
X4460D01*
X4493Y1783D01*
Y1817D01*
X4460Y1850D01*
X4493Y1883D01*
Y1917D01*
X4460Y1950D01*
X4393D01*
X4360Y1917D01*
Y1883D01*
X4393Y1850D01*
X4360Y1817D01*
Y1783D01*
X4393Y1850D02*
X4460D01*
X3103Y1783D02*
X3070Y1750D01*
X3003D01*
X2970Y1783D01*
Y1917D01*
X3003Y1950D01*
X3070D01*
X3103Y1917D01*
X3303Y1950D02*
X3170D01*
X3303Y1817D01*
Y1783D01*
X3270Y1750D01*
X3203D01*
X3170Y1783D01*
X3370Y1917D02*
X3403Y1950D01*
X3470D01*
X3503Y1917D01*
Y1783D01*
X3470Y1750D01*
X3403D01*
X3370Y1783D01*
Y1817D01*
X3403Y1850D01*
X3503D01*
X5205Y1531D02*
Y1598D01*
Y1564D01*
X5405D01*
X5372Y1531D01*
X5205Y1698D02*
X5238D01*
Y1731D01*
X5205D01*
Y1698D01*
X5372Y1864D02*
X5405Y1898D01*
Y1964D01*
X5372Y1998D01*
X5238D01*
X5205Y1964D01*
Y1898D01*
X5238Y1864D01*
X5372D01*
X5205Y2198D02*
Y2064D01*
X5338Y2198D01*
X5372D01*
X5405Y2164D01*
Y2098D01*
X5372Y2064D01*
X5205Y-439D02*
Y-373D01*
Y-406D01*
X5405D01*
X5372Y-439D01*
X5205Y-273D02*
X5238D01*
Y-240D01*
X5205D01*
Y-273D01*
X5372Y-106D02*
X5405Y-73D01*
Y-6D01*
X5372Y27D01*
X5238D01*
X5205Y-6D01*
Y-73D01*
X5238Y-106D01*
X5372D01*
X5205Y194D02*
X5405D01*
X5305Y94D01*
Y227D01*
X5372Y-1964D02*
X5405Y-1998D01*
Y-2064D01*
X5372Y-2098D01*
X5238D01*
X5205Y-2064D01*
Y-1998D01*
X5238Y-1964D01*
X5305D01*
Y-2031D01*
X5205Y-1898D02*
X5405D01*
X5205Y-1765D01*
X5405D01*
Y-1698D02*
X5205D01*
Y-1598D01*
X5238Y-1565D01*
X5372D01*
X5405Y-1598D01*
Y-1698D01*
X14338Y199D02*
Y399D01*
X14437D01*
X14471Y365D01*
Y232D01*
X14437Y199D01*
X14338D01*
X14537Y299D02*
X14671D01*
X14604Y232D02*
Y365D01*
X14338Y-391D02*
Y-191D01*
X14437D01*
X14471Y-225D01*
Y-358D01*
X14437Y-391D01*
X14338D01*
X14537Y-291D02*
X14671D01*
X14338Y789D02*
Y922D01*
X14404Y989D01*
X14471Y922D01*
Y789D01*
X14537D02*
Y989D01*
X14637D01*
X14671Y955D01*
Y922D01*
X14637Y889D01*
X14537D01*
X14637D01*
X14671Y855D01*
Y822D01*
X14637Y789D01*
X14537D01*
X14737D02*
Y955D01*
X14771Y989D01*
X14837D01*
X14871Y955D01*
Y789D01*
X15071Y822D02*
X15037Y789D01*
X14971D01*
X14937Y822D01*
Y855D01*
X14971Y889D01*
X15037D01*
X15071Y922D01*
Y955D01*
X15037Y989D01*
X14971D01*
X14937Y955D01*
X14338Y-981D02*
Y-815D01*
X14371Y-781D01*
X14437D01*
X14471Y-815D01*
Y-981D01*
X14671Y-948D02*
X14637Y-981D01*
X14571D01*
X14537Y-948D01*
Y-815D01*
X14571Y-781D01*
X14637D01*
X14671Y-815D01*
Y-881D01*
X14604D01*
X14737Y-781D02*
Y-981D01*
X14871Y-781D01*
Y-981D01*
X14937D02*
Y-781D01*
X15037D01*
X15071Y-815D01*
Y-948D01*
X15037Y-981D01*
X14937D01*
X10827Y-2135D02*
X10860Y-2168D01*
X10927D01*
X10960Y-2135D01*
Y-2002D01*
X10927Y-1969D01*
X10860D01*
X10827Y-2002D01*
Y-2135D01*
X11027Y-1969D02*
Y-2002D01*
X11060D01*
Y-1969D01*
X11027D01*
X11327D02*
X11193D01*
X11327Y-2102D01*
Y-2135D01*
X11293Y-2168D01*
X11227D01*
X11193Y-2135D01*
X11527Y-2168D02*
X11460Y-2135D01*
X11393Y-2068D01*
Y-2002D01*
X11427Y-1969D01*
X11493D01*
X11527Y-2002D01*
Y-2035D01*
X11493Y-2068D01*
X11393D01*
X10827Y-560D02*
X10860Y-594D01*
X10927D01*
X10960Y-560D01*
Y-427D01*
X10927Y-394D01*
X10860D01*
X10827Y-427D01*
Y-560D01*
X11027Y-394D02*
Y-427D01*
X11060D01*
Y-394D01*
X11027D01*
X11193Y-560D02*
X11227Y-594D01*
X11293D01*
X11327Y-560D01*
Y-427D01*
X11293Y-394D01*
X11227D01*
X11193Y-427D01*
Y-560D01*
X11493Y-394D02*
Y-594D01*
X11393Y-494D01*
X11527D01*
X9497Y2003D02*
X9530Y1970D01*
Y1903D01*
X9497Y1870D01*
X9463D01*
X9430Y1903D01*
Y1970D01*
X9397Y2003D01*
X9363D01*
X9330Y1970D01*
Y1903D01*
X9363Y1870D01*
X9530Y2070D02*
X9330D01*
Y2170D01*
X9363Y2203D01*
X9397D01*
X9430Y2170D01*
Y2070D01*
Y2170D01*
X9463Y2203D01*
X9497D01*
X9530Y2170D01*
Y2070D01*
X9330Y2270D02*
Y2337D01*
Y2303D01*
X9530D01*
X9497Y2270D01*
X8967Y2013D02*
X9000Y1980D01*
Y1913D01*
X8967Y1880D01*
X8933D01*
X8900Y1913D01*
Y1980D01*
X8867Y2013D01*
X8833D01*
X8800Y1980D01*
Y1913D01*
X8833Y1880D01*
X9000Y2080D02*
X8800D01*
Y2180D01*
X8833Y2213D01*
X8867D01*
X8900Y2180D01*
Y2080D01*
Y2180D01*
X8933Y2213D01*
X8967D01*
X9000Y2180D01*
Y2080D01*
X8800Y2413D02*
Y2280D01*
X8933Y2413D01*
X8967D01*
X9000Y2380D01*
Y2313D01*
X8967Y2280D01*
D15*
X7953Y1181D02*
G03*
X7953Y1181I-276J0D01*
G01*
X6181Y-1181D02*
G03*
X6181Y-1181I-276J0D01*
G01*
Y591D02*
G03*
X6181Y591I-276J0D01*
G01*
Y1181D02*
G03*
X6181Y1181I-276J0D01*
G01*
X5591D02*
G03*
X5591Y1181I-276J0D01*
G01*
Y591D02*
G03*
X5591Y591I-276J0D01*
G01*
X7362Y-1181D02*
G03*
X7362Y-1181I-276J0D01*
G01*
X14055Y-886D02*
G03*
X14055Y-886I-276J0D01*
G01*
Y-295D02*
G03*
X14055Y-295I-276J0D01*
G01*
Y295D02*
G03*
X14055Y295I-276J0D01*
G01*
X11299Y-1575D02*
G03*
X11299Y-1575I-276J0D01*
G01*
Y-984D02*
G03*
X11299Y-984I-276J0D01*
G01*
X7362Y1181D02*
G03*
X7362Y1181I-276J0D01*
G01*
X5591Y-1181D02*
G03*
X5591Y-1181I-276J0D01*
G01*
X14055Y886D02*
G03*
X14055Y886I-276J0D01*
G01*
D64*
X3684Y-898D02*
X3284D01*
Y-631D01*
Y-498D02*
X3551D01*
X3684Y-365D01*
X3551Y-232D01*
X3284D01*
X3484D01*
Y-498D01*
X3684Y-98D02*
X3284D01*
Y102D01*
X3351Y168D01*
X3417D01*
X3484Y102D01*
Y-98D01*
Y102D01*
X3551Y168D01*
X3617D01*
X3684Y102D01*
Y-98D01*
Y568D02*
Y302D01*
X3284D01*
Y568D01*
X3484Y302D02*
Y435D01*
X3684Y701D02*
X3284D01*
Y968D01*
D92*
X8160Y-1250D02*
X10640D01*
X8160Y1250D02*
X10640D01*
Y-1250D02*
Y1250D01*
X8160Y-1250D02*
Y1250D01*
X9577Y748D02*
X10640D01*
X9577D02*
Y1250D01*
M02*
