G04*
G04 #@! TF.GenerationSoftware,Altium Limited,Altium Designer,20.1.14 (287)*
G04*
G04 Layer_Color=16711935*
%FSLAX24Y24*%
%MOIN*%
G70*
G04*
G04 #@! TF.SameCoordinates,EC6BA951-EC3A-497E-BF03-96D7CE287269*
G04*
G04*
G04 #@! TF.FilePolarity,Negative*
G04*
G01*
G75*
%ADD34C,0.0240*%
%ADD40C,0.0139*%
%ADD44R,0.0296X0.0257*%
%ADD45C,0.0769*%
%ADD46C,0.0787*%
%ADD53R,0.0787X0.0787*%
%ADD58R,0.0769X0.0592*%
%ADD59R,0.0769X0.0158*%
%ADD60R,0.0500X0.0158*%
%ADD61R,0.0500X0.0592*%
%ADD88C,0.0370*%
%ADD89C,0.0375*%
%ADD90C,0.0454*%
%ADD91R,0.1005X0.0359*%
D34*
X9010Y1589D02*
G03*
X9010Y1589I-110J0D01*
G01*
Y1611D02*
G03*
X9010Y1611I-110J0D01*
G01*
X9550Y1601D02*
G03*
X9550Y1601I-110J0D01*
G01*
D40*
X8900Y1467D02*
D03*
Y1733D02*
D03*
X9440Y1477D02*
D03*
Y1723D02*
D03*
D44*
X4053Y2190D02*
D03*
X4447D02*
D03*
X3053D02*
D03*
X3447D02*
D03*
D45*
X13250Y2000D02*
D03*
Y-2000D02*
D03*
D03*
Y2000D02*
D03*
D46*
X2820Y-850D02*
D03*
D53*
X14173Y1575D02*
D03*
D58*
X10250Y-2734D02*
D03*
X11250D02*
D03*
X9250D02*
D03*
X5250D02*
D03*
X4250D02*
D03*
X3250D02*
D03*
X5250Y2734D02*
D03*
X8250Y-2734D02*
D03*
X7250D02*
D03*
X6250Y2734D02*
D03*
X7250D02*
D03*
X8250D02*
D03*
X9250D02*
D03*
X10250D02*
D03*
X11250D02*
D03*
X3250D02*
D03*
X4250D02*
D03*
X6250Y-2734D02*
D03*
X13250Y-2081D02*
D03*
Y2081D02*
D03*
D59*
X10250Y-3050D02*
D03*
X11250D02*
D03*
X9250D02*
D03*
X5250D02*
D03*
X4250D02*
D03*
X3250D02*
D03*
X5250Y3050D02*
D03*
X8250Y-3050D02*
D03*
X7250D02*
D03*
X6250Y3050D02*
D03*
X7250D02*
D03*
X8250D02*
D03*
X9250D02*
D03*
X10250D02*
D03*
X11250D02*
D03*
X3250D02*
D03*
X4250D02*
D03*
X6250Y-3050D02*
D03*
X13250Y-2416D02*
D03*
Y2416D02*
D03*
D60*
X2250Y-3050D02*
D03*
Y3050D02*
D03*
D61*
Y-2734D02*
D03*
Y2734D02*
D03*
D88*
X12200Y1000D02*
D03*
Y500D02*
D03*
Y0D02*
D03*
Y-500D02*
D03*
Y-1000D02*
D03*
X12700D02*
D03*
Y-500D02*
D03*
Y0D02*
D03*
Y500D02*
D03*
Y1000D02*
D03*
D89*
X13169Y-295D02*
D03*
Y295D02*
D03*
D90*
X7677Y1181D02*
D03*
X5906Y-1181D02*
D03*
Y591D02*
D03*
Y1181D02*
D03*
X5315D02*
D03*
Y591D02*
D03*
X7087Y-1181D02*
D03*
X13780Y-886D02*
D03*
Y-295D02*
D03*
Y295D02*
D03*
X11024Y-1575D02*
D03*
Y-984D02*
D03*
X7087Y1181D02*
D03*
X5315Y-1181D02*
D03*
X13780Y886D02*
D03*
D91*
X8632Y1000D02*
D03*
Y500D02*
D03*
Y0D02*
D03*
Y-500D02*
D03*
Y-1000D02*
D03*
X10168Y1000D02*
D03*
Y500D02*
D03*
Y0D02*
D03*
Y-500D02*
D03*
Y-1000D02*
D03*
M02*
